<?xml version="1.0" encoding="UTF-8"?>
  <svg xmlns="http://www.w3.org/2000/svg" viewBox="0 0 1500 1500" font-family="'Inter', system-ui, sans-serif">
    <rect width="1500" height="1500" fill="#f8fafc"/>
    <text x="750" y="60" text-anchor="middle" font-size="26" font-weight="700" fill="#0f172a">NeuroGuard — Entity Relationship Diagram</text>
    <text x="750" y="92" text-anchor="middle" font-size="14" fill="#64748b" letter-spacing="3">CHEN NOTATION · ENTITIES · ATTRIBUTES · RELATIONSHIPS</text>
  <line x1="315" y1="434" x2="750" y2="655" stroke="#94a3b8" stroke-width="1.4"/><line x1="460" y1="434" x2="750" y2="655" stroke="#94a3b8" stroke-width="1.4"/><line x1="605" y1="434" x2="750" y2="655" stroke="#94a3b8" stroke-width="1.4"/><line x1="750" y1="434" x2="750" y2="655" stroke="#94a3b8" stroke-width="1.4"/><line x1="895" y1="434" x2="750" y2="655" stroke="#94a3b8" stroke-width="1.4"/><line x1="1040" y1="434" x2="750" y2="655" stroke="#94a3b8" stroke-width="1.4"/><line x1="1185" y1="434" x2="750" y2="655" stroke="#94a3b8" stroke-width="1.4"/><line x1="45" y1="1356" x2="320" y2="1225" stroke="#94a3b8" stroke-width="1.4"/><line x1="155" y1="1356" x2="320" y2="1225" stroke="#94a3b8" stroke-width="1.4"/><line x1="265" y1="1356" x2="320" y2="1225" stroke="#94a3b8" stroke-width="1.4"/><line x1="375" y1="1356" x2="320" y2="1225" stroke="#94a3b8" stroke-width="1.4"/><line x1="485" y1="1356" x2="320" y2="1225" stroke="#94a3b8" stroke-width="1.4"/><line x1="595" y1="1356" x2="320" y2="1225" stroke="#94a3b8" stroke-width="1.4"/><line x1="905" y1="1356" x2="1180" y2="1225" stroke="#94a3b8" stroke-width="1.4"/><line x1="1015" y1="1356" x2="1180" y2="1225" stroke="#94a3b8" stroke-width="1.4"/><line x1="1125" y1="1356" x2="1180" y2="1225" stroke="#94a3b8" stroke-width="1.4"/><line x1="1235" y1="1356" x2="1180" y2="1225" stroke="#94a3b8" stroke-width="1.4"/><line x1="1345" y1="1356" x2="1180" y2="1225" stroke="#94a3b8" stroke-width="1.4"/><line x1="1455" y1="1356" x2="1180" y2="1225" stroke="#94a3b8" stroke-width="1.4"/><line x1="720" y1="745" x2="570" y2="918" stroke="#94a3b8" stroke-width="1.4"/><line x1="500" y1="962" x2="350" y2="1135" stroke="#94a3b8" stroke-width="1.4"/><line x1="780" y1="745" x2="930" y2="918" stroke="#94a3b8" stroke-width="1.4"/><line x1="1000" y1="962" x2="1150" y2="1135" stroke="#94a3b8" stroke-width="1.4"/>
    <g><circle cx="645" cy="831.5" r="14" fill="#ffffff" stroke="#cbd5e1" stroke-width="1.2"/>
    <text x="645" y="836.5" text-anchor="middle" font-size="13" font-weight="700" fill="#0f172a">1</text></g>
    <g><circle cx="425" cy="1048.5" r="14" fill="#ffffff" stroke="#cbd5e1" stroke-width="1.2"/>
    <text x="425" y="1053.5" text-anchor="middle" font-size="13" font-weight="700" fill="#0f172a">N</text></g>
    <g><circle cx="855" cy="831.5" r="14" fill="#ffffff" stroke="#cbd5e1" stroke-width="1.2"/>
    <text x="855" y="836.5" text-anchor="middle" font-size="13" font-weight="700" fill="#0f172a">1</text></g>
    <g><circle cx="1075" cy="1048.5" r="14" fill="#ffffff" stroke="#cbd5e1" stroke-width="1.2"/>
    <text x="1075" y="1053.5" text-anchor="middle" font-size="13" font-weight="700" fill="#0f172a">N</text></g>
    <g>
      <rect x="640" y="655" width="220" height="90" rx="6" fill="#a855f7" opacity="0.10"/>
      <rect x="640" y="655" width="220" height="90" rx="6" fill="none" stroke="#a855f7" stroke-width="2.5"/>
      <text x="750" y="707" text-anchor="middle" font-size="22" font-weight="700" fill="#a855f7" letter-spacing="0.5">Session</text>
    </g>
    <g>
      <rect x="210" y="1135" width="220" height="90" rx="6" fill="#10b981" opacity="0.10"/>
      <rect x="210" y="1135" width="220" height="90" rx="6" fill="none" stroke="#10b981" stroke-width="2.5"/>
      <text x="320" y="1187" text-anchor="middle" font-size="22" font-weight="700" fill="#10b981" letter-spacing="0.5">FatigueMetric</text>
    </g>
    <g>
      <rect x="1070" y="1135" width="220" height="90" rx="6" fill="#f97316" opacity="0.10"/>
      <rect x="1070" y="1135" width="220" height="90" rx="6" fill="none" stroke="#f97316" stroke-width="2.5"/>
      <text x="1180" y="1187" text-anchor="middle" font-size="22" font-weight="700" fill="#f97316" letter-spacing="0.5">Alert</text>
    </g>
    <g>
      <polygon points="535,900 610,940 535,980 460,940" fill="#fef3c7" stroke="#d97706" stroke-width="2"/>
      <text x="535" y="945" text-anchor="middle" font-size="14" font-weight="700" fill="#7c2d12" letter-spacing="0.5">RECORDS</text>
    </g>
    <g>
      <polygon points="965,900 1040,940 965,980 890,940" fill="#fef3c7" stroke="#d97706" stroke-width="2"/>
      <text x="965" y="945" text-anchor="middle" font-size="14" font-weight="700" fill="#7c2d12" letter-spacing="0.5">TRIGGERS</text>
    </g>
    <g>
      <ellipse cx="315" cy="410" rx="65" ry="24" fill="#ffffff" stroke="#16a34a" stroke-width="2"/>
      <text x="315" y="415" text-anchor="middle" font-size="13" fill="#15803d" font-weight="600" text-decoration="underline">session_id</text>
    </g>
    <g>
      <ellipse cx="460" cy="410" rx="65" ry="24" fill="#ffffff" stroke="#a855f7" stroke-width="1.4"/>
      <text x="460" y="415" text-anchor="middle" font-size="13" fill="#0f172a" font-weight="500">user_name</text>
    </g>
    <g>
      <ellipse cx="605" cy="410" rx="65" ry="24" fill="#ffffff" stroke="#a855f7" stroke-width="1.4"/>
      <text x="605" y="415" text-anchor="middle" font-size="13" fill="#0f172a" font-weight="500">session_type</text>
    </g>
    <g>
      <ellipse cx="750" cy="410" rx="65" ry="24" fill="#ffffff" stroke="#a855f7" stroke-width="1.4"/>
      <text x="750" y="415" text-anchor="middle" font-size="13" fill="#0f172a" font-weight="500">model_type</text>
    </g>
    <g>
      <ellipse cx="895" cy="410" rx="65" ry="24" fill="#ffffff" stroke="#a855f7" stroke-width="1.4"/>
      <text x="895" y="415" text-anchor="middle" font-size="13" fill="#0f172a" font-weight="500">status</text>
    </g>
    <g>
      <ellipse cx="1040" cy="410" rx="65" ry="24" fill="#ffffff" stroke="#a855f7" stroke-width="1.4"/>
      <text x="1040" y="415" text-anchor="middle" font-size="13" fill="#0f172a" font-weight="500">started_at</text>
    </g>
    <g>
      <ellipse cx="1185" cy="410" rx="65" ry="24" fill="#ffffff" stroke="#a855f7" stroke-width="1.4"/>
      <text x="1185" y="415" text-anchor="middle" font-size="13" fill="#0f172a" font-weight="500">ended_at</text>
    </g>
    <g>
      <ellipse cx="45" cy="1380" rx="65" ry="24" fill="#ffffff" stroke="#16a34a" stroke-width="2"/>
      <text x="45" y="1385" text-anchor="middle" font-size="13" fill="#15803d" font-weight="600" text-decoration="underline">metric_id</text>
    </g>
    <g>
      <ellipse cx="155" cy="1380" rx="65" ry="24" fill="#ffffff" stroke="#10b981" stroke-width="1.4"/>
      <text x="155" y="1385" text-anchor="middle" font-size="13" fill="#0f172a" font-weight="500">ear</text>
    </g>
    <g>
      <ellipse cx="265" cy="1380" rx="65" ry="24" fill="#ffffff" stroke="#10b981" stroke-width="1.4"/>
      <text x="265" y="1385" text-anchor="middle" font-size="13" fill="#0f172a" font-weight="500">perclos</text>
    </g>
    <g>
      <ellipse cx="375" cy="1380" rx="65" ry="24" fill="#ffffff" stroke="#10b981" stroke-width="1.4"/>
      <text x="375" y="1385" text-anchor="middle" font-size="13" fill="#0f172a" font-weight="500">blink_rate</text>
    </g>
    <g>
      <ellipse cx="485" cy="1380" rx="65" ry="24" fill="#ffffff" stroke="#10b981" stroke-width="1.4"/>
      <text x="485" y="1385" text-anchor="middle" font-size="13" fill="#0f172a" font-weight="500">fatigue_state</text>
    </g>
    <g>
      <ellipse cx="595" cy="1380" rx="65" ry="24" fill="#ffffff" stroke="#10b981" stroke-width="1.4"/>
      <text x="595" y="1385" text-anchor="middle" font-size="13" fill="#0f172a" font-weight="500">timestamp</text>
    </g>
    <g>
      <ellipse cx="905" cy="1380" rx="65" ry="24" fill="#ffffff" stroke="#16a34a" stroke-width="2"/>
      <text x="905" y="1385" text-anchor="middle" font-size="13" fill="#15803d" font-weight="600" text-decoration="underline">alert_id</text>
    </g>
    <g>
      <ellipse cx="1015" cy="1380" rx="65" ry="24" fill="#ffffff" stroke="#f97316" stroke-width="1.4"/>
      <text x="1015" y="1385" text-anchor="middle" font-size="13" fill="#0f172a" font-weight="500">alert_type</text>
    </g>
    <g>
      <ellipse cx="1125" cy="1380" rx="65" ry="24" fill="#ffffff" stroke="#f97316" stroke-width="1.4"/>
      <text x="1125" y="1385" text-anchor="middle" font-size="13" fill="#0f172a" font-weight="500">message</text>
    </g>
    <g>
      <ellipse cx="1235" cy="1380" rx="65" ry="24" fill="#ffffff" stroke="#f97316" stroke-width="1.4"/>
      <text x="1235" y="1385" text-anchor="middle" font-size="13" fill="#0f172a" font-weight="500">ear</text>
    </g>
    <g>
      <ellipse cx="1345" cy="1380" rx="65" ry="24" fill="#ffffff" stroke="#f97316" stroke-width="1.4"/>
      <text x="1345" y="1385" text-anchor="middle" font-size="13" fill="#0f172a" font-weight="500">perclos</text>
    </g>
    <g>
      <ellipse cx="1455" cy="1380" rx="65" ry="24" fill="#ffffff" stroke="#f97316" stroke-width="1.4"/>
      <text x="1455" y="1385" text-anchor="middle" font-size="13" fill="#0f172a" font-weight="500">timestamp</text>
    </g>
    <g transform="translate(210, 1460)">
      <rect x="-20" y="-28" width="1100" height="44" rx="22" fill="#ffffff" stroke="#e2e8f0"/>
      <rect x="0" y="-12" width="24" height="16" rx="3" fill="#ffffff" stroke="#475569" stroke-width="1.5"/>
      <text x="34" y="0" font-size="13" fill="#475569">Entity</text>
      <ellipse cx="135" cy="-4" rx="16" ry="10" fill="#ffffff" stroke="#475569" stroke-width="1.4"/>
      <text x="160" y="0" font-size="13" fill="#475569">Attribute</text>
      <ellipse cx="265" cy="-4" rx="16" ry="10" fill="#ffffff" stroke="#16a34a" stroke-width="2"/>
      <text x="258" y="0" font-size="11" fill="#15803d" font-weight="600" text-decoration="underline">pk</text>
      <text x="290" y="0" font-size="13" fill="#475569">Primary Key</text>
      <polygon points="410,-4 425,-16 440,-4 425,8" fill="#fef3c7" stroke="#d97706" stroke-width="1.4"/>
      <text x="455" y="0" font-size="13" fill="#475569">Relationship</text>
      <text x="575" y="0" font-size="13" font-weight="700" fill="#0f172a">1 : N</text>
      <text x="615" y="0" font-size="13" fill="#475569">One-to-Many cardinality</text>
      <line x1="800" y1="-4" x2="835" y2="-4" stroke="#94a3b8" stroke-width="1.4"/>
      <text x="845" y="0" font-size="13" fill="#475569">Connector line</text>
    </g>
  </svg>