<?xml version="1.0" encoding="UTF-8"?>
  <svg xmlns="http://www.w3.org/2000/svg" viewBox="0 0 1900 1100" font-family="'Inter', system-ui, sans-serif">
    <rect width="1900" height="1100" fill="#f8fafc"/>
    <text x="950" y="50" text-anchor="middle" font-size="24" font-weight="700" fill="#0f172a">NeuroGuard — Entity Relationship Diagram</text>
    <text x="950" y="78" text-anchor="middle" font-size="13" fill="#64748b" letter-spacing="2">CHEN NOTATION · ENTITIES · ATTRIBUTES · RELATIONSHIPS</text>
  <line x1="515" y1="222" x2="950" y2="410" stroke="#94a3b8" stroke-width="1.4"/><line x1="660" y1="222" x2="950" y2="410" stroke="#94a3b8" stroke-width="1.4"/><line x1="805" y1="222" x2="950" y2="410" stroke="#94a3b8" stroke-width="1.4"/><line x1="950" y1="222" x2="950" y2="410" stroke="#94a3b8" stroke-width="1.4"/><line x1="1095" y1="222" x2="950" y2="410" stroke="#94a3b8" stroke-width="1.4"/><line x1="1240" y1="222" x2="950" y2="410" stroke="#94a3b8" stroke-width="1.4"/><line x1="1385" y1="222" x2="950" y2="410" stroke="#94a3b8" stroke-width="1.4"/><line x1="55" y1="948" x2="380" y2="840" stroke="#94a3b8" stroke-width="1.4"/><line x1="185" y1="948" x2="380" y2="840" stroke="#94a3b8" stroke-width="1.4"/><line x1="315" y1="948" x2="380" y2="840" stroke="#94a3b8" stroke-width="1.4"/><line x1="445" y1="948" x2="380" y2="840" stroke="#94a3b8" stroke-width="1.4"/><line x1="575" y1="948" x2="380" y2="840" stroke="#94a3b8" stroke-width="1.4"/><line x1="705" y1="948" x2="380" y2="840" stroke="#94a3b8" stroke-width="1.4"/><line x1="1195" y1="948" x2="1520" y2="840" stroke="#94a3b8" stroke-width="1.4"/><line x1="1325" y1="948" x2="1520" y2="840" stroke="#94a3b8" stroke-width="1.4"/><line x1="1455" y1="948" x2="1520" y2="840" stroke="#94a3b8" stroke-width="1.4"/><line x1="1585" y1="948" x2="1520" y2="840" stroke="#94a3b8" stroke-width="1.4"/><line x1="1715" y1="948" x2="1520" y2="840" stroke="#94a3b8" stroke-width="1.4"/><line x1="1845" y1="948" x2="1520" y2="840" stroke="#94a3b8" stroke-width="1.4"/><line x1="920" y1="490" x2="700" y2="605" stroke="#94a3b8" stroke-width="1.4"/><line x1="630" y1="645" x2="410" y2="760" stroke="#94a3b8" stroke-width="1.4"/><line x1="980" y1="490" x2="1200" y2="605" stroke="#94a3b8" stroke-width="1.4"/><line x1="1270" y1="645" x2="1490" y2="760" stroke="#94a3b8" stroke-width="1.4"/>
    <g>
      <circle cx="810" cy="547.5" r="13" fill="#ffffff" stroke="#cbd5e1" stroke-width="1.2"/>
      <text x="810" y="551.5" text-anchor="middle" font-size="12" font-weight="700" fill="#0f172a">1</text>
    </g>
    <g>
      <circle cx="520" cy="702.5" r="13" fill="#ffffff" stroke="#cbd5e1" stroke-width="1.2"/>
      <text x="520" y="706.5" text-anchor="middle" font-size="12" font-weight="700" fill="#0f172a">N</text>
    </g>
    <g>
      <circle cx="1090" cy="547.5" r="13" fill="#ffffff" stroke="#cbd5e1" stroke-width="1.2"/>
      <text x="1090" y="551.5" text-anchor="middle" font-size="12" font-weight="700" fill="#0f172a">1</text>
    </g>
    <g>
      <circle cx="1380" cy="702.5" r="13" fill="#ffffff" stroke="#cbd5e1" stroke-width="1.2"/>
      <text x="1380" y="706.5" text-anchor="middle" font-size="12" font-weight="700" fill="#0f172a">N</text>
    </g>
    <g>
      <rect x="850" y="410" width="200" height="80" rx="6" fill="#ffffff" stroke="#a855f7" stroke-width="2.5"/>
      <rect x="850" y="410" width="200" height="80" rx="6" fill="#a855f7" opacity="0.10"/>
      <text x="950" y="457" text-anchor="middle" font-size="20" font-weight="700" fill="#a855f7" letter-spacing="0.5">Session</text>
    </g>
    <g>
      <rect x="280" y="760" width="200" height="80" rx="6" fill="#ffffff" stroke="#10b981" stroke-width="2.5"/>
      <rect x="280" y="760" width="200" height="80" rx="6" fill="#10b981" opacity="0.10"/>
      <text x="380" y="807" text-anchor="middle" font-size="20" font-weight="700" fill="#10b981" letter-spacing="0.5">FatigueMetric</text>
    </g>
    <g>
      <rect x="1420" y="760" width="200" height="80" rx="6" fill="#ffffff" stroke="#f97316" stroke-width="2.5"/>
      <rect x="1420" y="760" width="200" height="80" rx="6" fill="#f97316" opacity="0.10"/>
      <text x="1520" y="807" text-anchor="middle" font-size="20" font-weight="700" fill="#f97316" letter-spacing="0.5">Alert</text>
    </g>
    <g>
      <polygon points="665,590 730,625 665,660 600,625" fill="#fef3c7" stroke="#d97706" stroke-width="2"/>
      <text x="665" y="630" text-anchor="middle" font-size="13" font-weight="700" fill="#7c2d12" letter-spacing="0.5">RECORDS</text>
    </g>
    <g>
      <polygon points="1235,590 1300,625 1235,660 1170,625" fill="#fef3c7" stroke="#d97706" stroke-width="2"/>
      <text x="1235" y="630" text-anchor="middle" font-size="13" font-weight="700" fill="#7c2d12" letter-spacing="0.5">TRIGGERS</text>
    </g>
    <g>
      <ellipse cx="515" cy="200" rx="62" ry="22" fill="#ffffff" stroke="#16a34a" stroke-width="2"/>
      <text x="515" y="204" text-anchor="middle" font-size="12" fill="#15803d" font-weight="600" text-decoration="underline">session_id</text>
    </g>
    <g>
      <ellipse cx="660" cy="200" rx="62" ry="22" fill="#ffffff" stroke="#a855f7" stroke-width="1.4"/>
      <text x="660" y="204" text-anchor="middle" font-size="12" fill="#0f172a" font-weight="500">user_name</text>
    </g>
    <g>
      <ellipse cx="805" cy="200" rx="62" ry="22" fill="#ffffff" stroke="#a855f7" stroke-width="1.4"/>
      <text x="805" y="204" text-anchor="middle" font-size="12" fill="#0f172a" font-weight="500">session_type</text>
    </g>
    <g>
      <ellipse cx="950" cy="200" rx="62" ry="22" fill="#ffffff" stroke="#a855f7" stroke-width="1.4"/>
      <text x="950" y="204" text-anchor="middle" font-size="12" fill="#0f172a" font-weight="500">model_type</text>
    </g>
    <g>
      <ellipse cx="1095" cy="200" rx="62" ry="22" fill="#ffffff" stroke="#a855f7" stroke-width="1.4"/>
      <text x="1095" y="204" text-anchor="middle" font-size="12" fill="#0f172a" font-weight="500">status</text>
    </g>
    <g>
      <ellipse cx="1240" cy="200" rx="62" ry="22" fill="#ffffff" stroke="#a855f7" stroke-width="1.4"/>
      <text x="1240" y="204" text-anchor="middle" font-size="12" fill="#0f172a" font-weight="500">started_at</text>
    </g>
    <g>
      <ellipse cx="1385" cy="200" rx="62" ry="22" fill="#ffffff" stroke="#a855f7" stroke-width="1.4"/>
      <text x="1385" y="204" text-anchor="middle" font-size="12" fill="#0f172a" font-weight="500">ended_at</text>
    </g>
    <g>
      <ellipse cx="55" cy="970" rx="62" ry="22" fill="#ffffff" stroke="#16a34a" stroke-width="2"/>
      <text x="55" y="974" text-anchor="middle" font-size="12" fill="#15803d" font-weight="600" text-decoration="underline">metric_id</text>
    </g>
    <g>
      <ellipse cx="185" cy="970" rx="62" ry="22" fill="#ffffff" stroke="#10b981" stroke-width="1.4"/>
      <text x="185" y="974" text-anchor="middle" font-size="12" fill="#0f172a" font-weight="500">ear</text>
    </g>
    <g>
      <ellipse cx="315" cy="970" rx="62" ry="22" fill="#ffffff" stroke="#10b981" stroke-width="1.4"/>
      <text x="315" y="974" text-anchor="middle" font-size="12" fill="#0f172a" font-weight="500">perclos</text>
    </g>
    <g>
      <ellipse cx="445" cy="970" rx="62" ry="22" fill="#ffffff" stroke="#10b981" stroke-width="1.4"/>
      <text x="445" y="974" text-anchor="middle" font-size="12" fill="#0f172a" font-weight="500">blink_rate</text>
    </g>
    <g>
      <ellipse cx="575" cy="970" rx="62" ry="22" fill="#ffffff" stroke="#10b981" stroke-width="1.4"/>
      <text x="575" y="974" text-anchor="middle" font-size="12" fill="#0f172a" font-weight="500">fatigue_state</text>
    </g>
    <g>
      <ellipse cx="705" cy="970" rx="62" ry="22" fill="#ffffff" stroke="#10b981" stroke-width="1.4"/>
      <text x="705" y="974" text-anchor="middle" font-size="12" fill="#0f172a" font-weight="500">timestamp</text>
    </g>
    <g>
      <ellipse cx="1195" cy="970" rx="62" ry="22" fill="#ffffff" stroke="#16a34a" stroke-width="2"/>
      <text x="1195" y="974" text-anchor="middle" font-size="12" fill="#15803d" font-weight="600" text-decoration="underline">alert_id</text>
    </g>
    <g>
      <ellipse cx="1325" cy="970" rx="62" ry="22" fill="#ffffff" stroke="#f97316" stroke-width="1.4"/>
      <text x="1325" y="974" text-anchor="middle" font-size="12" fill="#0f172a" font-weight="500">alert_type</text>
    </g>
    <g>
      <ellipse cx="1455" cy="970" rx="62" ry="22" fill="#ffffff" stroke="#f97316" stroke-width="1.4"/>
      <text x="1455" y="974" text-anchor="middle" font-size="12" fill="#0f172a" font-weight="500">message</text>
    </g>
    <g>
      <ellipse cx="1585" cy="970" rx="62" ry="22" fill="#ffffff" stroke="#f97316" stroke-width="1.4"/>
      <text x="1585" y="974" text-anchor="middle" font-size="12" fill="#0f172a" font-weight="500">ear</text>
    </g>
    <g>
      <ellipse cx="1715" cy="970" rx="62" ry="22" fill="#ffffff" stroke="#f97316" stroke-width="1.4"/>
      <text x="1715" y="974" text-anchor="middle" font-size="12" fill="#0f172a" font-weight="500">perclos</text>
    </g>
    <g>
      <ellipse cx="1845" cy="970" rx="62" ry="22" fill="#ffffff" stroke="#f97316" stroke-width="1.4"/>
      <text x="1845" y="974" text-anchor="middle" font-size="12" fill="#0f172a" font-weight="500">timestamp</text>
    </g>
    <g transform="translate(470, 1050)">
      <rect x="-20" y="-26" width="960" height="40" rx="20" fill="#ffffff" stroke="#e2e8f0"/>

      <rect x="0" y="-12" width="22" height="14" rx="3" fill="#ffffff" stroke="#475569" stroke-width="1.5"/>
      <text x="32" y="-1" font-size="12" fill="#475569">Entity</text>

      <ellipse cx="115" cy="-5" rx="14" ry="8" fill="#ffffff" stroke="#475569" stroke-width="1.4"/>
      <text x="138" y="-1" font-size="12" fill="#475569">Attribute</text>

      <ellipse cx="225" cy="-5" rx="14" ry="8" fill="#ffffff" stroke="#16a34a" stroke-width="2"/>
      <text x="218" y="-1" font-size="11" fill="#15803d" font-weight="600" text-decoration="underline">pk</text>
      <text x="248" y="-1" font-size="12" fill="#475569">Primary Key</text>

      <polygon points="350,-5 365,-15 380,-5 365,5" fill="#fef3c7" stroke="#d97706" stroke-width="1.4"/>
      <text x="392" y="-1" font-size="12" fill="#475569">Relationship</text>

      <text x="495" y="-1" font-size="12" font-weight="700" fill="#0f172a">1 : N</text>
      <text x="528" y="-1" font-size="12" fill="#475569">One-to-Many cardinality</text>

      <line x1="700" y1="-5" x2="730" y2="-5" stroke="#94a3b8" stroke-width="1.4"/>
      <text x="740" y="-1" font-size="12" fill="#475569">Connector line</text>
    </g>
  </svg>