<?xml version="1.0" encoding="UTF-8"?>
  <svg xmlns="http://www.w3.org/2000/svg" viewBox="0 0 1500 1500" font-family="'Inter', system-ui, sans-serif">
    <rect width="1500" height="1500" fill="#f8fafc"/>
    <text x="750" y="65" text-anchor="middle" font-size="34" font-weight="700" fill="#0f172a">NeuroGuard — Entity Relationship Diagram</text>
    <text x="750" y="100" text-anchor="middle" font-size="17" fill="#64748b" letter-spacing="3">CHEN NOTATION · ENTITIES · ATTRIBUTES · RELATIONSHIPS</text>
  <line x1="210" y1="430" x2="750" y2="645" stroke="#94a3b8" stroke-width="1.6"/><line x1="390" y1="430" x2="750" y2="645" stroke="#94a3b8" stroke-width="1.6"/><line x1="570" y1="430" x2="750" y2="645" stroke="#94a3b8" stroke-width="1.6"/><line x1="750" y1="430" x2="750" y2="645" stroke="#94a3b8" stroke-width="1.6"/><line x1="930" y1="430" x2="750" y2="645" stroke="#94a3b8" stroke-width="1.6"/><line x1="1110" y1="430" x2="750" y2="645" stroke="#94a3b8" stroke-width="1.6"/><line x1="1290" y1="430" x2="750" y2="645" stroke="#94a3b8" stroke-width="1.6"/><line x1="200" y1="1300" x2="380" y2="1225" stroke="#94a3b8" stroke-width="1.6"/><line x1="380" y1="1300" x2="380" y2="1225" stroke="#94a3b8" stroke-width="1.6"/><line x1="560" y1="1300" x2="380" y2="1225" stroke="#94a3b8" stroke-width="1.6"/><line x1="200" y1="1380" x2="380" y2="1225" stroke="#94a3b8" stroke-width="1.6"/><line x1="380" y1="1380" x2="380" y2="1225" stroke="#94a3b8" stroke-width="1.6"/><line x1="560" y1="1380" x2="380" y2="1225" stroke="#94a3b8" stroke-width="1.6"/><line x1="940" y1="1300" x2="1120" y2="1225" stroke="#94a3b8" stroke-width="1.6"/><line x1="1120" y1="1300" x2="1120" y2="1225" stroke="#94a3b8" stroke-width="1.6"/><line x1="1300" y1="1300" x2="1120" y2="1225" stroke="#94a3b8" stroke-width="1.6"/><line x1="940" y1="1380" x2="1120" y2="1225" stroke="#94a3b8" stroke-width="1.6"/><line x1="1120" y1="1380" x2="1120" y2="1225" stroke="#94a3b8" stroke-width="1.6"/><line x1="1300" y1="1380" x2="1120" y2="1225" stroke="#94a3b8" stroke-width="1.6"/><line x1="710" y1="755" x2="605" y2="907" stroke="#94a3b8" stroke-width="1.6"/><line x1="525" y1="963" x2="420" y2="1115" stroke="#94a3b8" stroke-width="1.6"/><line x1="790" y1="755" x2="895" y2="907" stroke="#94a3b8" stroke-width="1.6"/><line x1="975" y1="963" x2="1080" y2="1115" stroke="#94a3b8" stroke-width="1.6"/>
    <g><circle cx="657.5" cy="831" r="18" fill="#ffffff" stroke="#cbd5e1" stroke-width="1.4"/>
    <text x="657.5" y="837" text-anchor="middle" font-size="16" font-weight="700" fill="#0f172a">1</text></g>
    <g><circle cx="472.5" cy="1039" r="18" fill="#ffffff" stroke="#cbd5e1" stroke-width="1.4"/>
    <text x="472.5" y="1045" text-anchor="middle" font-size="16" font-weight="700" fill="#0f172a">N</text></g>
    <g><circle cx="842.5" cy="831" r="18" fill="#ffffff" stroke="#cbd5e1" stroke-width="1.4"/>
    <text x="842.5" y="837" text-anchor="middle" font-size="16" font-weight="700" fill="#0f172a">1</text></g>
    <g><circle cx="1027.5" cy="1039" r="18" fill="#ffffff" stroke="#cbd5e1" stroke-width="1.4"/>
    <text x="1027.5" y="1045" text-anchor="middle" font-size="16" font-weight="700" fill="#0f172a">N</text></g>
    <g>
      <rect x="620" y="645" width="260" height="110" rx="8" fill="#a855f7" opacity="0.10"/>
      <rect x="620" y="645" width="260" height="110" rx="8" fill="none" stroke="#a855f7" stroke-width="3"/>
      <text x="750" y="709" text-anchor="middle" font-size="28" font-weight="700" fill="#a855f7" letter-spacing="0.8">Session</text>
    </g>
    <g>
      <rect x="250" y="1115" width="260" height="110" rx="8" fill="#10b981" opacity="0.10"/>
      <rect x="250" y="1115" width="260" height="110" rx="8" fill="none" stroke="#10b981" stroke-width="3"/>
      <text x="380" y="1179" text-anchor="middle" font-size="28" font-weight="700" fill="#10b981" letter-spacing="0.8">FatigueMetric</text>
    </g>
    <g>
      <rect x="990" y="1115" width="260" height="110" rx="8" fill="#f97316" opacity="0.10"/>
      <rect x="990" y="1115" width="260" height="110" rx="8" fill="none" stroke="#f97316" stroke-width="3"/>
      <text x="1120" y="1179" text-anchor="middle" font-size="28" font-weight="700" fill="#f97316" letter-spacing="0.8">Alert</text>
    </g>
    <g>
      <polygon points="565,885 660,935 565,985 470,935" fill="#fef3c7" stroke="#d97706" stroke-width="2.5"/>
      <text x="565" y="942" text-anchor="middle" font-size="18" font-weight="700" fill="#7c2d12" letter-spacing="0.5">RECORDS</text>
    </g>
    <g>
      <polygon points="935,885 1030,935 935,985 840,935" fill="#fef3c7" stroke="#d97706" stroke-width="2.5"/>
      <text x="935" y="942" text-anchor="middle" font-size="18" font-weight="700" fill="#7c2d12" letter-spacing="0.5">TRIGGERS</text>
    </g>
    <g>
      <ellipse cx="210" cy="400" rx="82" ry="30" fill="#ffffff" stroke="#16a34a" stroke-width="2.4"/>
      <text x="210" y="406" text-anchor="middle" font-size="17" fill="#15803d" font-weight="700" text-decoration="underline">session_id</text>
    </g>
    <g>
      <ellipse cx="390" cy="400" rx="82" ry="30" fill="#ffffff" stroke="#a855f7" stroke-width="1.6"/>
      <text x="390" y="406" text-anchor="middle" font-size="17" fill="#0f172a" font-weight="600">user_name</text>
    </g>
    <g>
      <ellipse cx="570" cy="400" rx="82" ry="30" fill="#ffffff" stroke="#a855f7" stroke-width="1.6"/>
      <text x="570" y="406" text-anchor="middle" font-size="17" fill="#0f172a" font-weight="600">session_type</text>
    </g>
    <g>
      <ellipse cx="750" cy="400" rx="82" ry="30" fill="#ffffff" stroke="#a855f7" stroke-width="1.6"/>
      <text x="750" y="406" text-anchor="middle" font-size="17" fill="#0f172a" font-weight="600">model_type</text>
    </g>
    <g>
      <ellipse cx="930" cy="400" rx="82" ry="30" fill="#ffffff" stroke="#a855f7" stroke-width="1.6"/>
      <text x="930" y="406" text-anchor="middle" font-size="17" fill="#0f172a" font-weight="600">status</text>
    </g>
    <g>
      <ellipse cx="1110" cy="400" rx="82" ry="30" fill="#ffffff" stroke="#a855f7" stroke-width="1.6"/>
      <text x="1110" y="406" text-anchor="middle" font-size="17" fill="#0f172a" font-weight="600">started_at</text>
    </g>
    <g>
      <ellipse cx="1290" cy="400" rx="82" ry="30" fill="#ffffff" stroke="#a855f7" stroke-width="1.6"/>
      <text x="1290" y="406" text-anchor="middle" font-size="17" fill="#0f172a" font-weight="600">ended_at</text>
    </g>
    <g>
      <ellipse cx="200" cy="1330" rx="82" ry="30" fill="#ffffff" stroke="#16a34a" stroke-width="2.4"/>
      <text x="200" y="1336" text-anchor="middle" font-size="17" fill="#15803d" font-weight="700" text-decoration="underline">metric_id</text>
    </g>
    <g>
      <ellipse cx="380" cy="1330" rx="82" ry="30" fill="#ffffff" stroke="#10b981" stroke-width="1.6"/>
      <text x="380" y="1336" text-anchor="middle" font-size="17" fill="#0f172a" font-weight="600">ear</text>
    </g>
    <g>
      <ellipse cx="560" cy="1330" rx="82" ry="30" fill="#ffffff" stroke="#10b981" stroke-width="1.6"/>
      <text x="560" y="1336" text-anchor="middle" font-size="17" fill="#0f172a" font-weight="600">perclos</text>
    </g>
    <g>
      <ellipse cx="200" cy="1410" rx="82" ry="30" fill="#ffffff" stroke="#10b981" stroke-width="1.6"/>
      <text x="200" y="1416" text-anchor="middle" font-size="17" fill="#0f172a" font-weight="600">blink_rate</text>
    </g>
    <g>
      <ellipse cx="380" cy="1410" rx="82" ry="30" fill="#ffffff" stroke="#10b981" stroke-width="1.6"/>
      <text x="380" y="1416" text-anchor="middle" font-size="17" fill="#0f172a" font-weight="600">fatigue_state</text>
    </g>
    <g>
      <ellipse cx="560" cy="1410" rx="82" ry="30" fill="#ffffff" stroke="#10b981" stroke-width="1.6"/>
      <text x="560" y="1416" text-anchor="middle" font-size="17" fill="#0f172a" font-weight="600">timestamp</text>
    </g>
    <g>
      <ellipse cx="940" cy="1330" rx="82" ry="30" fill="#ffffff" stroke="#16a34a" stroke-width="2.4"/>
      <text x="940" y="1336" text-anchor="middle" font-size="17" fill="#15803d" font-weight="700" text-decoration="underline">alert_id</text>
    </g>
    <g>
      <ellipse cx="1120" cy="1330" rx="82" ry="30" fill="#ffffff" stroke="#f97316" stroke-width="1.6"/>
      <text x="1120" y="1336" text-anchor="middle" font-size="17" fill="#0f172a" font-weight="600">alert_type</text>
    </g>
    <g>
      <ellipse cx="1300" cy="1330" rx="82" ry="30" fill="#ffffff" stroke="#f97316" stroke-width="1.6"/>
      <text x="1300" y="1336" text-anchor="middle" font-size="17" fill="#0f172a" font-weight="600">message</text>
    </g>
    <g>
      <ellipse cx="940" cy="1410" rx="82" ry="30" fill="#ffffff" stroke="#f97316" stroke-width="1.6"/>
      <text x="940" y="1416" text-anchor="middle" font-size="17" fill="#0f172a" font-weight="600">ear</text>
    </g>
    <g>
      <ellipse cx="1120" cy="1410" rx="82" ry="30" fill="#ffffff" stroke="#f97316" stroke-width="1.6"/>
      <text x="1120" y="1416" text-anchor="middle" font-size="17" fill="#0f172a" font-weight="600">perclos</text>
    </g>
    <g>
      <ellipse cx="1300" cy="1410" rx="82" ry="30" fill="#ffffff" stroke="#f97316" stroke-width="1.6"/>
      <text x="1300" y="1416" text-anchor="middle" font-size="17" fill="#0f172a" font-weight="600">timestamp</text>
    </g>
    <g transform="translate(150, 1480)">
      <rect x="-22" y="-30" width="1220" height="50" rx="25" fill="#ffffff" stroke="#e2e8f0"/>
      <rect x="0" y="-12" width="28" height="20" rx="3" fill="#ffffff" stroke="#475569" stroke-width="1.6"/>
      <text x="40" y="3" font-size="16" fill="#475569">Entity</text>
      <ellipse cx="150" cy="-2" rx="20" ry="13" fill="#ffffff" stroke="#475569" stroke-width="1.5"/>
      <text x="180" y="3" font-size="16" fill="#475569">Attribute</text>
      <ellipse cx="295" cy="-2" rx="20" ry="13" fill="#ffffff" stroke="#16a34a" stroke-width="2.2"/>
      <text x="287" y="3" font-size="13" fill="#15803d" font-weight="700" text-decoration="underline">pk</text>
      <text x="325" y="3" font-size="16" fill="#475569">Primary Key</text>
      <polygon points="455,-2 472,-16 489,-2 472,12" fill="#fef3c7" stroke="#d97706" stroke-width="1.6"/>
      <text x="505" y="3" font-size="16" fill="#475569">Relationship</text>
      <text x="650" y="3" font-size="16" font-weight="700" fill="#0f172a">1 : N</text>
      <text x="700" y="3" font-size="16" fill="#475569">One-to-Many cardinality</text>
      <line x1="920" y1="-2" x2="960" y2="-2" stroke="#94a3b8" stroke-width="1.6"/>
      <text x="975" y="3" font-size="16" fill="#475569">Connector line</text>
    </g>
  </svg>