<?xml version="1.0" encoding="UTF-8"?>
  <svg xmlns="http://www.w3.org/2000/svg" viewBox="0 0 1500 1500" font-family="'Inter', system-ui, sans-serif">
    <rect width="1500" height="1500" fill="#f8fafc"/>
    <text x="750" y="65" text-anchor="middle" font-size="34" font-weight="700" fill="#0f172a">NeuroGuard — Database Schema</text>
    <text x="750" y="100" text-anchor="middle" font-size="17" fill="#64748b" letter-spacing="3">POSTGRESQL · DRIZZLE ORM · CROW'S-FOOT NOTATION</text>
    
    <g>
      <rect x="525" y="150" width="460" height="480" rx="10" fill="#0f172a" opacity="0.07"/>
      <rect x="520" y="145" width="460" height="480" rx="10" fill="#ffffff" stroke="#7c3aed" stroke-width="2.5"/>
      <path d="M 520 155 a 10 10 0 0 1 10 -10 h 440 a 10 10 0 0 1 10 10 v 50 h -460 z" fill="#7c3aed"/>
      <text x="750" y="184" text-anchor="middle" font-size="26" font-weight="700" fill="#ffffff" letter-spacing="0.5">sessions</text>
    
      <line x1="520" y1="205" x2="980" y2="205" stroke="#e2e8f0" stroke-width="1"/>
      <text x="538" y="233" font-family="'JetBrains Mono','SF Mono',monospace" font-size="17" font-weight="700" fill="#15803d">id</text>
      <text x="962" y="233" text-anchor="end" font-family="'JetBrains Mono','SF Mono',monospace" font-size="15" font-weight="600" fill="#1e3a8a">SERIAL</text>
      <text x="780" y="233" text-anchor="end" font-size="13" font-weight="700" fill="#15803d">«PK»</text>
      
      
      <line x1="520" y1="247" x2="980" y2="247" stroke="#e2e8f0" stroke-width="1"/>
      <text x="538" y="275" font-family="'JetBrains Mono','SF Mono',monospace" font-size="17" font-weight="500" fill="#0f172a">user_name</text>
      <text x="962" y="275" text-anchor="end" font-family="'JetBrains Mono','SF Mono',monospace" font-size="15" font-weight="600" fill="#1e3a8a">VARCHAR</text>
      
      
      
      <line x1="520" y1="289" x2="980" y2="289" stroke="#e2e8f0" stroke-width="1"/>
      <text x="538" y="317" font-family="'JetBrains Mono','SF Mono',monospace" font-size="17" font-weight="500" fill="#0f172a">session_type</text>
      <text x="962" y="317" text-anchor="end" font-family="'JetBrains Mono','SF Mono',monospace" font-size="15" font-weight="600" fill="#1e3a8a">ENUM</text>
      
      
      
      <line x1="520" y1="331" x2="980" y2="331" stroke="#e2e8f0" stroke-width="1"/>
      <text x="538" y="359" font-family="'JetBrains Mono','SF Mono',monospace" font-size="17" font-weight="500" fill="#0f172a">model_type</text>
      <text x="962" y="359" text-anchor="end" font-family="'JetBrains Mono','SF Mono',monospace" font-size="15" font-weight="600" fill="#1e3a8a">ENUM</text>
      
      
      
      <line x1="520" y1="373" x2="980" y2="373" stroke="#e2e8f0" stroke-width="1"/>
      <text x="538" y="401" font-family="'JetBrains Mono','SF Mono',monospace" font-size="17" font-weight="500" fill="#0f172a">status</text>
      <text x="962" y="401" text-anchor="end" font-family="'JetBrains Mono','SF Mono',monospace" font-size="15" font-weight="600" fill="#1e3a8a">ENUM</text>
      
      
      
      <line x1="520" y1="415" x2="980" y2="415" stroke="#e2e8f0" stroke-width="1"/>
      <text x="538" y="443" font-family="'JetBrains Mono','SF Mono',monospace" font-size="17" font-weight="500" fill="#0f172a">started_at</text>
      <text x="962" y="443" text-anchor="end" font-family="'JetBrains Mono','SF Mono',monospace" font-size="15" font-weight="600" fill="#1e3a8a">TIMESTAMPTZ</text>
      
      
      
      <line x1="520" y1="457" x2="980" y2="457" stroke="#e2e8f0" stroke-width="1"/>
      <text x="538" y="485" font-family="'JetBrains Mono','SF Mono',monospace" font-size="17" font-weight="500" fill="#0f172a">ended_at</text>
      <text x="962" y="485" text-anchor="end" font-family="'JetBrains Mono','SF Mono',monospace" font-size="15" font-weight="600" fill="#1e3a8a">TIMESTAMPTZ</text>
      
      
      
      <line x1="520" y1="499" x2="980" y2="499" stroke="#e2e8f0" stroke-width="1"/>
      <text x="538" y="527" font-family="'JetBrains Mono','SF Mono',monospace" font-size="17" font-weight="500" fill="#0f172a">total_alerts</text>
      <text x="962" y="527" text-anchor="end" font-family="'JetBrains Mono','SF Mono',monospace" font-size="15" font-weight="600" fill="#1e3a8a">INTEGER</text>
      
      
      
      <line x1="520" y1="541" x2="980" y2="541" stroke="#e2e8f0" stroke-width="1"/>
      <text x="538" y="569" font-family="'JetBrains Mono','SF Mono',monospace" font-size="17" font-weight="500" fill="#0f172a">avg_ear</text>
      <text x="962" y="569" text-anchor="end" font-family="'JetBrains Mono','SF Mono',monospace" font-size="15" font-weight="600" fill="#1e3a8a">REAL</text>
      
      
      
      <line x1="520" y1="583" x2="980" y2="583" stroke="#e2e8f0" stroke-width="1"/>
      <text x="538" y="611" font-family="'JetBrains Mono','SF Mono',monospace" font-size="17" font-weight="500" fill="#0f172a">avg_perclos</text>
      <text x="962" y="611" text-anchor="end" font-family="'JetBrains Mono','SF Mono',monospace" font-size="15" font-weight="600" fill="#1e3a8a">REAL</text>
      
      
      </g>
    
    <g>
      <rect x="75" y="925" width="460" height="354" rx="10" fill="#0f172a" opacity="0.07"/>
      <rect x="70" y="920" width="460" height="354" rx="10" fill="#ffffff" stroke="#10b981" stroke-width="2.5"/>
      <path d="M 70 930 a 10 10 0 0 1 10 -10 h 440 a 10 10 0 0 1 10 10 v 50 h -460 z" fill="#10b981"/>
      <text x="300" y="959" text-anchor="middle" font-size="26" font-weight="700" fill="#ffffff" letter-spacing="0.5">fatigue_metrics</text>
    
      <line x1="70" y1="980" x2="530" y2="980" stroke="#e2e8f0" stroke-width="1"/>
      <text x="88" y="1008" font-family="'JetBrains Mono','SF Mono',monospace" font-size="17" font-weight="700" fill="#15803d">id</text>
      <text x="512" y="1008" text-anchor="end" font-family="'JetBrains Mono','SF Mono',monospace" font-size="15" font-weight="600" fill="#1e3a8a">SERIAL</text>
      <text x="330" y="1008" text-anchor="end" font-size="13" font-weight="700" fill="#15803d">«PK»</text>
      
      
      <line x1="70" y1="1022" x2="530" y2="1022" stroke="#e2e8f0" stroke-width="1"/>
      <text x="88" y="1050" font-family="'JetBrains Mono','SF Mono',monospace" font-size="17" font-weight="700" fill="#c2410c">session_id</text>
      <text x="512" y="1050" text-anchor="end" font-family="'JetBrains Mono','SF Mono',monospace" font-size="15" font-weight="600" fill="#1e3a8a">INTEGER</text>
      
      <text x="330" y="1050" text-anchor="end" font-size="13" font-weight="700" fill="#c2410c">«FK»</text>
      
      <line x1="70" y1="1064" x2="530" y2="1064" stroke="#e2e8f0" stroke-width="1"/>
      <text x="88" y="1092" font-family="'JetBrains Mono','SF Mono',monospace" font-size="17" font-weight="500" fill="#0f172a">ear</text>
      <text x="512" y="1092" text-anchor="end" font-family="'JetBrains Mono','SF Mono',monospace" font-size="15" font-weight="600" fill="#1e3a8a">REAL</text>
      
      
      
      <line x1="70" y1="1106" x2="530" y2="1106" stroke="#e2e8f0" stroke-width="1"/>
      <text x="88" y="1134" font-family="'JetBrains Mono','SF Mono',monospace" font-size="17" font-weight="500" fill="#0f172a">perclos</text>
      <text x="512" y="1134" text-anchor="end" font-family="'JetBrains Mono','SF Mono',monospace" font-size="15" font-weight="600" fill="#1e3a8a">REAL</text>
      
      
      
      <line x1="70" y1="1148" x2="530" y2="1148" stroke="#e2e8f0" stroke-width="1"/>
      <text x="88" y="1176" font-family="'JetBrains Mono','SF Mono',monospace" font-size="17" font-weight="500" fill="#0f172a">blink_rate</text>
      <text x="512" y="1176" text-anchor="end" font-family="'JetBrains Mono','SF Mono',monospace" font-size="15" font-weight="600" fill="#1e3a8a">REAL</text>
      
      
      
      <line x1="70" y1="1190" x2="530" y2="1190" stroke="#e2e8f0" stroke-width="1"/>
      <text x="88" y="1218" font-family="'JetBrains Mono','SF Mono',monospace" font-size="17" font-weight="500" fill="#0f172a">fatigue_state</text>
      <text x="512" y="1218" text-anchor="end" font-family="'JetBrains Mono','SF Mono',monospace" font-size="15" font-weight="600" fill="#1e3a8a">ENUM</text>
      
      
      
      <line x1="70" y1="1232" x2="530" y2="1232" stroke="#e2e8f0" stroke-width="1"/>
      <text x="88" y="1260" font-family="'JetBrains Mono','SF Mono',monospace" font-size="17" font-weight="500" fill="#0f172a">timestamp</text>
      <text x="512" y="1260" text-anchor="end" font-family="'JetBrains Mono','SF Mono',monospace" font-size="15" font-weight="600" fill="#1e3a8a">TIMESTAMPTZ</text>
      
      
      </g>
    
    <g>
      <rect x="975" y="925" width="460" height="354" rx="10" fill="#0f172a" opacity="0.07"/>
      <rect x="970" y="920" width="460" height="354" rx="10" fill="#ffffff" stroke="#f97316" stroke-width="2.5"/>
      <path d="M 970 930 a 10 10 0 0 1 10 -10 h 440 a 10 10 0 0 1 10 10 v 50 h -460 z" fill="#f97316"/>
      <text x="1200" y="959" text-anchor="middle" font-size="26" font-weight="700" fill="#ffffff" letter-spacing="0.5">alerts</text>
    
      <line x1="970" y1="980" x2="1430" y2="980" stroke="#e2e8f0" stroke-width="1"/>
      <text x="988" y="1008" font-family="'JetBrains Mono','SF Mono',monospace" font-size="17" font-weight="700" fill="#15803d">id</text>
      <text x="1412" y="1008" text-anchor="end" font-family="'JetBrains Mono','SF Mono',monospace" font-size="15" font-weight="600" fill="#1e3a8a">SERIAL</text>
      <text x="1230" y="1008" text-anchor="end" font-size="13" font-weight="700" fill="#15803d">«PK»</text>
      
      
      <line x1="970" y1="1022" x2="1430" y2="1022" stroke="#e2e8f0" stroke-width="1"/>
      <text x="988" y="1050" font-family="'JetBrains Mono','SF Mono',monospace" font-size="17" font-weight="700" fill="#c2410c">session_id</text>
      <text x="1412" y="1050" text-anchor="end" font-family="'JetBrains Mono','SF Mono',monospace" font-size="15" font-weight="600" fill="#1e3a8a">INTEGER</text>
      
      <text x="1230" y="1050" text-anchor="end" font-size="13" font-weight="700" fill="#c2410c">«FK»</text>
      
      <line x1="970" y1="1064" x2="1430" y2="1064" stroke="#e2e8f0" stroke-width="1"/>
      <text x="988" y="1092" font-family="'JetBrains Mono','SF Mono',monospace" font-size="17" font-weight="500" fill="#0f172a">alert_type</text>
      <text x="1412" y="1092" text-anchor="end" font-family="'JetBrains Mono','SF Mono',monospace" font-size="15" font-weight="600" fill="#1e3a8a">ENUM</text>
      
      
      
      <line x1="970" y1="1106" x2="1430" y2="1106" stroke="#e2e8f0" stroke-width="1"/>
      <text x="988" y="1134" font-family="'JetBrains Mono','SF Mono',monospace" font-size="17" font-weight="500" fill="#0f172a">message</text>
      <text x="1412" y="1134" text-anchor="end" font-family="'JetBrains Mono','SF Mono',monospace" font-size="15" font-weight="600" fill="#1e3a8a">TEXT</text>
      
      
      
      <line x1="970" y1="1148" x2="1430" y2="1148" stroke="#e2e8f0" stroke-width="1"/>
      <text x="988" y="1176" font-family="'JetBrains Mono','SF Mono',monospace" font-size="17" font-weight="500" fill="#0f172a">ear</text>
      <text x="1412" y="1176" text-anchor="end" font-family="'JetBrains Mono','SF Mono',monospace" font-size="15" font-weight="600" fill="#1e3a8a">REAL</text>
      
      
      
      <line x1="970" y1="1190" x2="1430" y2="1190" stroke="#e2e8f0" stroke-width="1"/>
      <text x="988" y="1218" font-family="'JetBrains Mono','SF Mono',monospace" font-size="17" font-weight="500" fill="#0f172a">perclos</text>
      <text x="1412" y="1218" text-anchor="end" font-family="'JetBrains Mono','SF Mono',monospace" font-size="15" font-weight="600" fill="#1e3a8a">REAL</text>
      
      
      
      <line x1="970" y1="1232" x2="1430" y2="1232" stroke="#e2e8f0" stroke-width="1"/>
      <text x="988" y="1260" font-family="'JetBrains Mono','SF Mono',monospace" font-size="17" font-weight="500" fill="#0f172a">timestamp</text>
      <text x="1412" y="1260" text-anchor="end" font-family="'JetBrains Mono','SF Mono',monospace" font-size="15" font-weight="600" fill="#1e3a8a">TIMESTAMPTZ</text>
      
      
      </g>
  
    <path d="M 620 625 L 620 790 L 592 790 L 592 1043 L 552 1043" 
          stroke="#475569" stroke-width="2.2" fill="none"/>
  <line x1="608" y1="639" x2="632" y2="639" stroke="#475569" stroke-width="2.4"/><g transform="translate(552, 1043) rotate(180)">
    <line x1="0" y1="0" x2="18" y2="0" stroke="#475569" stroke-width="2.2"/>
    <line x1="0" y1="0" x2="18" y2="-10" stroke="#475569" stroke-width="2.2"/>
    <line x1="0" y1="0" x2="18" y2="10" stroke="#475569" stroke-width="2.2"/>
  </g><g transform="translate(330, 790)">
    <rect x="-115" y="-26" width="230" height="44" rx="22" fill="#ffffff" stroke="#cbd5e1" stroke-width="1.4"/>
    <text x="0" y="5" text-anchor="middle" font-size="18" font-weight="700" fill="#0f172a">1 : N  records</text>
  </g><text x="330" y="838" text-anchor="middle" font-size="15" fill="#64748b" font-style="italic">ON DELETE CASCADE</text>
    <path d="M 880 625 L 880 790 L 908 790 L 908 1043 L 948 1043" 
          stroke="#475569" stroke-width="2.2" fill="none"/>
  <line x1="868" y1="639" x2="892" y2="639" stroke="#475569" stroke-width="2.4"/><g transform="translate(948, 1043)">
    <line x1="0" y1="0" x2="18" y2="0" stroke="#475569" stroke-width="2.2"/>
    <line x1="0" y1="0" x2="18" y2="-10" stroke="#475569" stroke-width="2.2"/>
    <line x1="0" y1="0" x2="18" y2="10" stroke="#475569" stroke-width="2.2"/>
  </g><g transform="translate(1170, 790)">
    <rect x="-115" y="-26" width="230" height="44" rx="22" fill="#ffffff" stroke="#cbd5e1" stroke-width="1.4"/>
    <text x="0" y="5" text-anchor="middle" font-size="18" font-weight="700" fill="#0f172a">1 : N  triggers</text>
  </g><text x="1170" y="838" text-anchor="middle" font-size="15" fill="#64748b" font-style="italic">ON DELETE CASCADE</text>
    <g transform="translate(210, 1450)">
      <rect x="-22" y="-30" width="1100" height="50" rx="25" fill="#ffffff" stroke="#e2e8f0"/>
      <text x="0" y="5" font-size="16" font-weight="700" fill="#15803d">«PK»</text>
      <text x="58" y="5" font-size="16" fill="#475569">Primary Key</text>
      <text x="200" y="5" font-size="16" font-weight="700" fill="#c2410c">«FK»</text>
      <text x="258" y="5" font-size="16" fill="#475569">Foreign Key</text>
      <line x1="400" y1="-2" x2="436" y2="-2" stroke="#475569" stroke-width="2.2"/>
      <line x1="436" y1="-12" x2="436" y2="8" stroke="#475569" stroke-width="2.4"/>
      <text x="455" y="5" font-size="16" fill="#475569">"One" side</text>
      <g transform="translate(580, -2)">
        <line x1="0" y1="0" x2="18" y2="0" stroke="#475569" stroke-width="2.2"/>
        <line x1="0" y1="0" x2="18" y2="-10" stroke="#475569" stroke-width="2.2"/>
        <line x1="0" y1="0" x2="18" y2="10" stroke="#475569" stroke-width="2.2"/>
      </g>
      <text x="612" y="5" font-size="16" fill="#475569">"Many" side (crow's-foot)</text>
      <text x="870" y="5" font-size="16" font-weight="700" fill="#0f172a">1 : N</text>
      <text x="920" y="5" font-size="16" fill="#475569">Cardinality</text>
    </g>
  </svg>