<?xml version="1.0" encoding="UTF-8"?>
  <svg xmlns="http://www.w3.org/2000/svg" viewBox="0 0 1500 1500" font-family="'Inter', system-ui, sans-serif">
    <rect width="1500" height="1500" fill="#f8fafc"/>
    <defs>
      <marker id="arr" viewBox="0 0 10 10" refX="9" refY="5" markerWidth="11" markerHeight="11" orient="auto">
        <path d="M 0 0 L 10 5 L 0 10 z" fill="#475569"/>
      </marker>
      <marker id="arrUp" viewBox="0 0 10 10" refX="9" refY="5" markerWidth="11" markerHeight="11" orient="auto">
        <path d="M 0 0 L 10 5 L 0 10 z" fill="#475569"/>
      </marker>
    </defs>

    <text x="750" y="62" text-anchor="middle" font-size="34" font-weight="700" fill="#0f172a">NeuroGuard — System Architecture</text>
    <text x="750" y="98" text-anchor="middle" font-size="17" fill="#64748b" letter-spacing="3">FOUR-TIER WEB ARCHITECTURE · CLIENT · VISION/ML · API · DATA</text>
  
    <g transform="translate(70, 290)">
      <circle cx="0" cy="-44" r="22" fill="none" stroke="#0f172a" stroke-width="2.6"/>
      <line x1="0" y1="-22" x2="0" y2="32" stroke="#0f172a" stroke-width="2.6"/>
      <line x1="-30" y1="0" x2="30" y2="0" stroke="#0f172a" stroke-width="2.6"/>
      <line x1="0" y1="32" x2="-26" y2="72" stroke="#0f172a" stroke-width="2.6"/>
      <line x1="0" y1="32" x2="26" y2="72" stroke="#0f172a" stroke-width="2.6"/>
      <text x="0" y="100" text-anchor="middle" font-size="18" font-weight="700" fill="#0f172a">User</text>
      <text x="0" y="124" text-anchor="middle" font-size="14" fill="#64748b">Driver / Operator</text>
    </g>
  <line x1="115" y1="290" x2="225" y2="290" stroke="#475569" stroke-width="2.4" marker-end="url(#arr)"/><text x="170" y="278" text-anchor="middle" font-size="13" fill="#475569" font-style="italic">interacts</text>
    <g>
      <rect x="205" y="165" width="1240" height="250" rx="14" fill="#0f172a" opacity="0.06"/>
      <rect x="200" y="160" width="1240" height="250" rx="14" fill="#2563eb" fill-opacity="0.06" stroke="#2563eb" stroke-width="2.4"/>
      <rect x="200" y="160" width="200" height="46" rx="14" fill="#2563eb"/>
      <text x="300" y="191" text-anchor="middle" font-size="18" font-weight="700" fill="#ffffff" letter-spacing="1">CLIENT LAYER</text>
      <text x="1422" y="191" text-anchor="end" font-size="14" fill="#2563eb" font-style="italic">React 18 · Vite · TailwindCSS</text>
    </g>
    <g>
      <rect x="227" y="233" width="280" height="158" rx="10" fill="#0f172a" opacity="0.05"/>
      <rect x="224" y="230" width="280" height="158" rx="10" fill="#ffffff" stroke="#2563eb" stroke-width="2"/>
      <text x="364" y="262" text-anchor="middle" font-size="18" font-weight="700" fill="#2563eb">Webcam UI</text>
      <text x="364" y="286" text-anchor="middle" font-size="15" fill="#334155">MediaPipe input</text><text x="364" y="308" text-anchor="middle" font-size="15" fill="#334155">Live preview canvas</text><text x="364" y="330" text-anchor="middle" font-size="15" fill="#334155">Permission handling</text>
    </g>
    <g>
      <rect x="531" y="233" width="280" height="158" rx="10" fill="#0f172a" opacity="0.05"/>
      <rect x="528" y="230" width="280" height="158" rx="10" fill="#ffffff" stroke="#2563eb" stroke-width="2"/>
      <text x="668" y="262" text-anchor="middle" font-size="18" font-weight="700" fill="#2563eb">Live Monitor</text>
      <text x="668" y="286" text-anchor="middle" font-size="15" fill="#334155">EAR / PERCLOS</text><text x="668" y="308" text-anchor="middle" font-size="15" fill="#334155">Blink rate gauges</text><text x="668" y="330" text-anchor="middle" font-size="15" fill="#334155">Fatigue state badge</text>
    </g>
    <g>
      <rect x="835" y="233" width="280" height="158" rx="10" fill="#0f172a" opacity="0.05"/>
      <rect x="832" y="230" width="280" height="158" rx="10" fill="#ffffff" stroke="#2563eb" stroke-width="2"/>
      <text x="972" y="262" text-anchor="middle" font-size="18" font-weight="700" fill="#2563eb">Charts &amp; History</text>
      <text x="972" y="286" text-anchor="middle" font-size="15" fill="#334155">Recharts time series</text><text x="972" y="308" text-anchor="middle" font-size="15" fill="#334155">Session list</text><text x="972" y="330" text-anchor="middle" font-size="15" fill="#334155">Replay viewer</text>
    </g>
    <g>
      <rect x="1139" y="233" width="280" height="158" rx="10" fill="#0f172a" opacity="0.05"/>
      <rect x="1136" y="230" width="280" height="158" rx="10" fill="#ffffff" stroke="#2563eb" stroke-width="2"/>
      <text x="1276" y="262" text-anchor="middle" font-size="18" font-weight="700" fill="#2563eb">Analytics View</text>
      <text x="1276" y="286" text-anchor="middle" font-size="15" fill="#334155">Aggregate metrics</text><text x="1276" y="308" text-anchor="middle" font-size="15" fill="#334155">Per-model accuracy</text><text x="1276" y="330" text-anchor="middle" font-size="15" fill="#334155">Alert breakdown</text>
    </g>
    <g>
      <rect x="205" y="475" width="1240" height="290" rx="14" fill="#0f172a" opacity="0.06"/>
      <rect x="200" y="470" width="1240" height="290" rx="14" fill="#7c3aed" fill-opacity="0.06" stroke="#7c3aed" stroke-width="2.4"/>
      <rect x="200" y="470" width="200" height="46" rx="14" fill="#7c3aed"/>
      <text x="300" y="501" text-anchor="middle" font-size="18" font-weight="700" fill="#ffffff" letter-spacing="1">VISION &amp; ML</text>
      <text x="1422" y="501" text-anchor="end" font-size="14" fill="#7c3aed" font-style="italic">TensorFlow.js · MediaPipe · in-browser inference</text>
    </g>
    <g>
      <rect x="233" y="543" width="580" height="110" rx="10" fill="#0f172a" opacity="0.05"/>
      <rect x="230" y="540" width="580" height="110" rx="10" fill="#ffffff" stroke="#7c3aed" stroke-width="2"/>
      <text x="520" y="572" text-anchor="middle" font-size="18" font-weight="700" fill="#7c3aed">MediaPipe Face Mesh</text>
      <text x="520" y="596" text-anchor="middle" font-size="15" fill="#334155">468 facial landmarks · 30 FPS</text><text x="520" y="618" text-anchor="middle" font-size="15" fill="#334155">Eye region segmentation (idx 33–263)</text>
    </g>
    <g>
      <rect x="833" y="543" width="580" height="110" rx="10" fill="#0f172a" opacity="0.05"/>
      <rect x="830" y="540" width="580" height="110" rx="10" fill="#ffffff" stroke="#7c3aed" stroke-width="2"/>
      <text x="1120" y="572" text-anchor="middle" font-size="18" font-weight="700" fill="#7c3aed">Feature Extraction</text>
      <text x="1120" y="596" text-anchor="middle" font-size="15" fill="#334155">EAR  ·  PERCLOS  ·  Blink Rate</text><text x="1120" y="618" text-anchor="middle" font-size="15" fill="#334155">Rolling-window normalisation (1s / 3s / 10s)</text>
    </g>
    <g>
      <rect x="228" y="668" width="380" height="80" rx="10" fill="#0f172a" opacity="0.05"/>
      <rect x="225" y="665" width="380" height="80" rx="10" fill="#ffffff" stroke="#7c3aed" stroke-width="2"/>
      <text x="415" y="697" text-anchor="middle" font-size="18" font-weight="700" fill="#7c3aed">CNN + LSTM</text>
      <text x="415" y="721" text-anchor="middle" font-size="15" fill="#334155">Spatial CNN → temporal LSTM</text>
    </g>
    <g>
      <rect x="633" y="668" width="380" height="80" rx="10" fill="#0f172a" opacity="0.05"/>
      <rect x="630" y="665" width="380" height="80" rx="10" fill="#ffffff" stroke="#7c3aed" stroke-width="2"/>
      <text x="820" y="697" text-anchor="middle" font-size="18" font-weight="700" fill="#7c3aed">ResNet + LSTM</text>
      <text x="820" y="721" text-anchor="middle" font-size="15" fill="#334155">Residual blocks → sequence model</text>
    </g>
    <g>
      <rect x="1038" y="668" width="380" height="80" rx="10" fill="#0f172a" opacity="0.05"/>
      <rect x="1035" y="665" width="380" height="80" rx="10" fill="#ffffff" stroke="#7c3aed" stroke-width="2"/>
      <text x="1225" y="697" text-anchor="middle" font-size="18" font-weight="700" fill="#7c3aed">DenseNet + LSTM</text>
      <text x="1225" y="721" text-anchor="middle" font-size="15" fill="#334155">Dense connectivity → recurrence</text>
    </g>
    <g>
      <rect x="205" y="825" width="1240" height="220" rx="14" fill="#0f172a" opacity="0.06"/>
      <rect x="200" y="820" width="1240" height="220" rx="14" fill="#16a34a" fill-opacity="0.06" stroke="#16a34a" stroke-width="2.4"/>
      <rect x="200" y="820" width="200" height="46" rx="14" fill="#16a34a"/>
      <text x="300" y="851" text-anchor="middle" font-size="18" font-weight="700" fill="#ffffff" letter-spacing="1">API LAYER</text>
      <text x="1422" y="851" text-anchor="end" font-size="14" fill="#16a34a" font-style="italic">Node.js · Express 5 · REST · TypeScript</text>
    </g>
    <g>
      <rect x="227" y="893" width="280" height="130" rx="10" fill="#0f172a" opacity="0.05"/>
      <rect x="224" y="890" width="280" height="130" rx="10" fill="#ffffff" stroke="#16a34a" stroke-width="2"/>
      <text x="364" y="922" text-anchor="middle" font-size="18" font-weight="700" fill="#16a34a">Sessions API</text>
      <text x="364" y="946" text-anchor="middle" font-size="15" fill="#334155">POST /sessions</text><text x="364" y="968" text-anchor="middle" font-size="15" fill="#334155">PATCH /:id/end</text><text x="364" y="990" text-anchor="middle" font-size="15" fill="#334155">GET /sessions</text>
    </g>
    <g>
      <rect x="531" y="893" width="280" height="130" rx="10" fill="#0f172a" opacity="0.05"/>
      <rect x="528" y="890" width="280" height="130" rx="10" fill="#ffffff" stroke="#16a34a" stroke-width="2"/>
      <text x="668" y="922" text-anchor="middle" font-size="18" font-weight="700" fill="#16a34a">Metrics API</text>
      <text x="668" y="946" text-anchor="middle" font-size="15" fill="#334155">POST /metrics</text><text x="668" y="968" text-anchor="middle" font-size="15" fill="#334155">GET /sessions/:id/metrics</text><text x="668" y="990" text-anchor="middle" font-size="15" fill="#334155">Bulk insert</text>
    </g>
    <g>
      <rect x="835" y="893" width="280" height="130" rx="10" fill="#0f172a" opacity="0.05"/>
      <rect x="832" y="890" width="280" height="130" rx="10" fill="#ffffff" stroke="#16a34a" stroke-width="2"/>
      <text x="972" y="922" text-anchor="middle" font-size="18" font-weight="700" fill="#16a34a">Alerts Service</text>
      <text x="972" y="946" text-anchor="middle" font-size="15" fill="#334155">Threshold detector</text><text x="972" y="968" text-anchor="middle" font-size="15" fill="#334155">POST /alerts</text><text x="972" y="990" text-anchor="middle" font-size="15" fill="#334155">Severity classifier</text>
    </g>
    <g>
      <rect x="1139" y="893" width="280" height="130" rx="10" fill="#0f172a" opacity="0.05"/>
      <rect x="1136" y="890" width="280" height="130" rx="10" fill="#ffffff" stroke="#16a34a" stroke-width="2"/>
      <text x="1276" y="922" text-anchor="middle" font-size="18" font-weight="700" fill="#16a34a">Analytics API</text>
      <text x="1276" y="946" text-anchor="middle" font-size="15" fill="#334155">Aggregations</text><text x="1276" y="968" text-anchor="middle" font-size="15" fill="#334155">GET /analytics</text><text x="1276" y="990" text-anchor="middle" font-size="15" fill="#334155">Per-model stats</text>
    </g>
    <g>
      <rect x="205" y="1105" width="1240" height="240" rx="14" fill="#0f172a" opacity="0.06"/>
      <rect x="200" y="1100" width="1240" height="240" rx="14" fill="#ea580c" fill-opacity="0.06" stroke="#ea580c" stroke-width="2.4"/>
      <rect x="200" y="1100" width="200" height="46" rx="14" fill="#ea580c"/>
      <text x="300" y="1131" text-anchor="middle" font-size="18" font-weight="700" fill="#ffffff" letter-spacing="1">DATA LAYER</text>
      <text x="1422" y="1131" text-anchor="end" font-size="14" fill="#ea580c" font-style="italic">PostgreSQL · Drizzle ORM</text>
    </g>
    <g>
      <rect x="227" y="1173" width="280" height="150" rx="10" fill="#0f172a" opacity="0.05"/>
      <rect x="224" y="1170" width="280" height="150" rx="10" fill="#ffffff" stroke="#ea580c" stroke-width="2"/>
      <text x="364" y="1202" text-anchor="middle" font-size="18" font-weight="700" fill="#ea580c">users</text>
      <text x="364" y="1226" text-anchor="middle" font-size="15" fill="#334155">user_id (PK)</text><text x="364" y="1248" text-anchor="middle" font-size="15" fill="#334155">role · created_at</text><text x="364" y="1270" text-anchor="middle" font-size="15" fill="#334155">Linked to auth</text>
    </g>
    <g>
      <rect x="531" y="1173" width="280" height="150" rx="10" fill="#0f172a" opacity="0.05"/>
      <rect x="528" y="1170" width="280" height="150" rx="10" fill="#ffffff" stroke="#ea580c" stroke-width="2"/>
      <text x="668" y="1202" text-anchor="middle" font-size="18" font-weight="700" fill="#ea580c">sessions</text>
      <text x="668" y="1226" text-anchor="middle" font-size="15" fill="#334155">session_id (PK)</text><text x="668" y="1248" text-anchor="middle" font-size="15" fill="#334155">model_type · status</text><text x="668" y="1270" text-anchor="middle" font-size="15" fill="#334155">started_at / ended_at</text>
    </g>
    <g>
      <rect x="835" y="1173" width="280" height="150" rx="10" fill="#0f172a" opacity="0.05"/>
      <rect x="832" y="1170" width="280" height="150" rx="10" fill="#ffffff" stroke="#ea580c" stroke-width="2"/>
      <text x="972" y="1202" text-anchor="middle" font-size="18" font-weight="700" fill="#ea580c">fatigue_metrics</text>
      <text x="972" y="1226" text-anchor="middle" font-size="15" fill="#334155">metric_id (PK)</text><text x="972" y="1248" text-anchor="middle" font-size="15" fill="#334155">session_id (FK CASCADE)</text><text x="972" y="1270" text-anchor="middle" font-size="15" fill="#334155">ear · perclos · blink</text>
    </g>
    <g>
      <rect x="1139" y="1173" width="280" height="150" rx="10" fill="#0f172a" opacity="0.05"/>
      <rect x="1136" y="1170" width="280" height="150" rx="10" fill="#ffffff" stroke="#ea580c" stroke-width="2"/>
      <text x="1276" y="1202" text-anchor="middle" font-size="18" font-weight="700" fill="#ea580c">alerts</text>
      <text x="1276" y="1226" text-anchor="middle" font-size="15" fill="#334155">alert_id (PK)</text><text x="1276" y="1248" text-anchor="middle" font-size="15" fill="#334155">session_id (FK CASCADE)</text><text x="1276" y="1270" text-anchor="middle" font-size="15" fill="#334155">alert_type · message</text>
    </g>
    <line x1="806" y1="410" x2="806" y2="458" stroke="#475569" stroke-width="2.4" marker-end="url(#arr)"/>
    <line x1="834" y1="470" x2="834" y2="422" stroke="#475569" stroke-width="2.4" marker-end="url(#arrUp)"/>
    <g>
      <rect x="856" y="424" width="276" height="32" rx="16" fill="#ffffff" stroke="#cbd5e1" stroke-width="1.2"/>
      <text x="866" y="446" font-size="14" font-weight="600" fill="#0f172a">video frames ▼  /  predictions ▲</text>
    </g>
    <line x1="806" y1="760" x2="806" y2="808" stroke="#475569" stroke-width="2.4" marker-end="url(#arr)"/>
    <line x1="834" y1="820" x2="834" y2="772" stroke="#475569" stroke-width="2.4" marker-end="url(#arrUp)"/>
    <g>
      <rect x="856" y="774" width="268" height="32" rx="16" fill="#ffffff" stroke="#cbd5e1" stroke-width="1.2"/>
      <text x="866" y="796" font-size="14" font-weight="600" fill="#0f172a">metrics + alerts ▼  /  config ▲</text>
    </g>
    <line x1="806" y1="1040" x2="806" y2="1088" stroke="#475569" stroke-width="2.4" marker-end="url(#arr)"/>
    <line x1="834" y1="1100" x2="834" y2="1052" stroke="#475569" stroke-width="2.4" marker-end="url(#arrUp)"/>
    <g>
      <rect x="856" y="1054" width="276" height="32" rx="16" fill="#ffffff" stroke="#cbd5e1" stroke-width="1.2"/>
      <text x="866" y="1076" font-size="14" font-weight="600" fill="#0f172a">SQL via Drizzle ORM ▼  /  rows ▲</text>
    </g>
    <g transform="translate(210, 1410)">
      <rect x="-22" y="-30" width="1100" height="50" rx="25" fill="#ffffff" stroke="#e2e8f0"/>
      <rect x="0" y="-12" width="22" height="22" rx="4" fill="#2563eb" fill-opacity="0.15" stroke="#2563eb" stroke-width="2"/>
      <text x="32" y="5" font-size="16" fill="#475569">Client (Browser)</text>
      <rect x="200" y="-12" width="22" height="22" rx="4" fill="#7c3aed" fill-opacity="0.15" stroke="#7c3aed" stroke-width="2"/>
      <text x="232" y="5" font-size="16" fill="#475569">Vision / ML</text>
      <rect x="370" y="-12" width="22" height="22" rx="4" fill="#16a34a" fill-opacity="0.15" stroke="#16a34a" stroke-width="2"/>
      <text x="402" y="5" font-size="16" fill="#475569">API (Express)</text>
      <rect x="555" y="-12" width="22" height="22" rx="4" fill="#ea580c" fill-opacity="0.15" stroke="#ea580c" stroke-width="2"/>
      <text x="587" y="5" font-size="16" fill="#475569">Data (PostgreSQL)</text>
      <line x1="775" y1="-2" x2="815" y2="-2" stroke="#475569" stroke-width="2.4" marker-end="url(#arr)"/>
      <text x="825" y="5" font-size="16" fill="#475569">Data flow / API call</text>
    </g>

    <text x="750" y="1480" text-anchor="middle" font-size="14" fill="#94a3b8" font-style="italic">
      Real-time eye fatigue monitoring · in-browser inference · cascaded persistence with ON DELETE CASCADE
    </text>
  </svg>