<?xml version="1.0" encoding="UTF-8"?>
<svg xmlns="http://www.w3.org/2000/svg" viewBox="0 0 1500 1500" font-family="'Inter', system-ui, sans-serif">
  <rect width="1500" height="1500" fill="#f8fafc"/>
  <defs>
    <marker id="arrow" viewBox="0 0 10 10" refX="9" refY="5" markerWidth="10" markerHeight="10" orient="auto">
      <path d="M 0 0 L 10 5 L 0 10" fill="none" stroke="#64748b" stroke-width="2"/>
    </marker>
  </defs>

  <!-- Title -->
  <text x="750" y="62" text-anchor="middle" font-size="42" font-weight="800" fill="#0f172a">NeuroGuard — Use Case Diagram</text>
  <text x="750" y="106" text-anchor="middle" font-size="22" fill="#64748b" letter-spacing="3" font-weight="600">UML  ·  ACTORS  ·  USE CASES  ·  SYSTEM BOUNDARY</text>

  <!-- ============ SYSTEM BOUNDARY ============ -->
  <rect x="240" y="135" width="1240" height="1240" rx="14" fill="#ffffff" stroke="#0f172a" stroke-width="2.4"/>
  <text x="860" y="178" text-anchor="middle" font-size="28" font-weight="800" fill="#0f172a" letter-spacing="1">NeuroGuard System</text>

  <!-- ============ LANES ============ -->
  <rect x="240" y="200" width="1240" height="380" fill="#2563eb" opacity="0.05"/>
  <line x1="240" y1="200" x2="1480" y2="200" stroke="#2563eb" stroke-width="1.4" stroke-dasharray="6 5" opacity="0.6"/>
  <text x="260" y="232" font-size="22" font-weight="800" fill="#2563eb" letter-spacing="2.5" opacity="0.9">USER LANE</text>

  <rect x="240" y="585" width="1240" height="380" fill="#7c3aed" opacity="0.05"/>
  <line x1="240" y1="585" x2="1480" y2="585" stroke="#7c3aed" stroke-width="1.4" stroke-dasharray="6 5" opacity="0.6"/>
  <text x="260" y="617" font-size="22" font-weight="800" fill="#7c3aed" letter-spacing="2.5" opacity="0.9">SME LANE</text>

  <rect x="240" y="970" width="1240" height="405" fill="#ea580c" opacity="0.05"/>
  <line x1="240" y1="970" x2="1480" y2="970" stroke="#ea580c" stroke-width="1.4" stroke-dasharray="6 5" opacity="0.6"/>
  <text x="260" y="1002" font-size="22" font-weight="800" fill="#ea580c" letter-spacing="2.5" opacity="0.9">DEVELOPER LANE</text>

  <!-- ============ ACTORS (left side, outside system) ============ -->
  <!-- USER -->
  <g>
    <circle cx="120" cy="320" r="28" fill="none" stroke="#0f172a" stroke-width="3"/>
    <line x1="120" y1="348" x2="120" y2="420" stroke="#0f172a" stroke-width="3"/>
    <line x1="78" y1="375" x2="162" y2="375" stroke="#0f172a" stroke-width="3"/>
    <line x1="120" y1="420" x2="85" y2="470" stroke="#0f172a" stroke-width="3"/>
    <line x1="120" y1="420" x2="155" y2="470" stroke="#0f172a" stroke-width="3"/>
    <text x="120" y="500" text-anchor="middle" font-size="26" font-weight="800" fill="#0f172a">User</text>
    <text x="120" y="525" text-anchor="middle" font-size="16" fill="#64748b" font-style="italic">(Driver / Operator)</text>
  </g>
  <!-- SME -->
  <g>
    <circle cx="120" cy="710" r="28" fill="none" stroke="#0f172a" stroke-width="3"/>
    <line x1="120" y1="738" x2="120" y2="810" stroke="#0f172a" stroke-width="3"/>
    <line x1="78" y1="765" x2="162" y2="765" stroke="#0f172a" stroke-width="3"/>
    <line x1="120" y1="810" x2="85" y2="860" stroke="#0f172a" stroke-width="3"/>
    <line x1="120" y1="810" x2="155" y2="860" stroke="#0f172a" stroke-width="3"/>
    <text x="120" y="890" text-anchor="middle" font-size="26" font-weight="800" fill="#0f172a">SME</text>
    <text x="120" y="915" text-anchor="middle" font-size="16" fill="#64748b" font-style="italic">(Safety Domain Expert)</text>
  </g>
  <!-- DEVELOPER -->
  <g>
    <circle cx="120" cy="1110" r="28" fill="none" stroke="#0f172a" stroke-width="3"/>
    <line x1="120" y1="1138" x2="120" y2="1210" stroke="#0f172a" stroke-width="3"/>
    <line x1="78" y1="1165" x2="162" y2="1165" stroke="#0f172a" stroke-width="3"/>
    <line x1="120" y1="1210" x2="85" y2="1260" stroke="#0f172a" stroke-width="3"/>
    <line x1="120" y1="1210" x2="155" y2="1260" stroke="#0f172a" stroke-width="3"/>
    <text x="120" y="1290" text-anchor="middle" font-size="26" font-weight="800" fill="#0f172a">Developer</text>
    <text x="120" y="1315" text-anchor="middle" font-size="16" fill="#64748b" font-style="italic">(Engineer / Maintainer)</text>
  </g>

  <!-- ============ USER LANE ASSOCIATION BUS ============ -->
  <line x1="162" y1="375" x2="220" y2="375" stroke="#475569" stroke-width="2"/>
  <line x1="220" y1="290" x2="220" y2="490" stroke="#475569" stroke-width="2"/>

  <!-- USER USE CASES (Row 1: y=305) -->
  <line x1="220" y1="305" x2="320" y2="305" stroke="#475569" stroke-width="2"/>
  <g>
    <ellipse cx="450" cy="305" rx="130" ry="50" fill="#eff6ff" stroke="#2563eb" stroke-width="2.6"/>
    <text x="450" y="299" text-anchor="middle" font-size="20" fill="#1e3a8a" font-weight="700">Start Monitoring</text>
    <text x="450" y="324" text-anchor="middle" font-size="20" fill="#1e3a8a" font-weight="700">Session</text>
  </g>

  <line x1="580" y1="305" x2="620" y2="305" stroke="#64748b" stroke-width="2" stroke-dasharray="6 4" marker-end="url(#arrow)"/>
  <text x="600" y="293" text-anchor="middle" font-size="16" fill="#64748b" font-style="italic" font-weight="600">«include»</text>
  <g>
    <ellipse cx="750" cy="305" rx="130" ry="50" fill="#ffffff" stroke="#475569" stroke-width="2"/>
    <text x="750" y="299" text-anchor="middle" font-size="20" fill="#0f172a" font-weight="700">Select Inference</text>
    <text x="750" y="324" text-anchor="middle" font-size="20" fill="#0f172a" font-weight="700">Model</text>
  </g>

  <g>
    <ellipse cx="1080" cy="305" rx="130" ry="50" fill="#fef2f2" stroke="#dc2626" stroke-width="2.6"/>
    <text x="1080" y="299" text-anchor="middle" font-size="20" fill="#7f1d1d" font-weight="700">Receive Fatigue</text>
    <text x="1080" y="324" text-anchor="middle" font-size="20" fill="#7f1d1d" font-weight="700">Alert</text>
  </g>

  <!-- USER USE CASES (Row 2: y=425) -->
  <line x1="220" y1="425" x2="320" y2="425" stroke="#475569" stroke-width="2"/>
  <g>
    <ellipse cx="450" cy="425" rx="130" ry="50" fill="#eff6ff" stroke="#2563eb" stroke-width="2.6"/>
    <text x="450" y="419" text-anchor="middle" font-size="20" fill="#1e3a8a" font-weight="700">View Live</text>
    <text x="450" y="444" text-anchor="middle" font-size="20" fill="#1e3a8a" font-weight="700">Metrics</text>
  </g>

  <g>
    <ellipse cx="750" cy="425" rx="130" ry="50" fill="#ffffff" stroke="#475569" stroke-width="2"/>
    <text x="750" y="419" text-anchor="middle" font-size="20" fill="#0f172a" font-weight="700">View Session</text>
    <text x="750" y="444" text-anchor="middle" font-size="20" fill="#0f172a" font-weight="700">History</text>
  </g>

  <g>
    <ellipse cx="1080" cy="425" rx="130" ry="50" fill="#ffffff" stroke="#475569" stroke-width="2"/>
    <text x="1080" y="419" text-anchor="middle" font-size="20" fill="#0f172a" font-weight="700">View Analytics</text>
    <text x="1080" y="444" text-anchor="middle" font-size="20" fill="#0f172a" font-weight="700">Dashboard</text>
  </g>
  <!-- Connect rows 1+2 to bus and to row 1 ovals -->
  <line x1="320" y1="305" x2="320" y2="425" stroke="#475569" stroke-width="2"/>
  <line x1="750" y1="355" x2="750" y2="375" stroke="#475569" stroke-width="2"/>
  <line x1="1080" y1="355" x2="1080" y2="375" stroke="#475569" stroke-width="2"/>
  <!-- Row 1 stems -->
  <line x1="220" y1="305" x2="320" y2="305" stroke="#475569" stroke-width="2"/>

  <!-- ============ SME LANE ASSOCIATION BUS ============ -->
  <line x1="162" y1="765" x2="220" y2="765" stroke="#475569" stroke-width="2"/>
  <line x1="220" y1="685" x2="220" y2="900" stroke="#475569" stroke-width="2"/>

  <!-- SME USE CASES (Row 1: y=700) -->
  <line x1="220" y1="700" x2="320" y2="700" stroke="#475569" stroke-width="2"/>
  <g>
    <ellipse cx="450" cy="700" rx="130" ry="50" fill="#f5f3ff" stroke="#7c3aed" stroke-width="2.6"/>
    <text x="450" y="694" text-anchor="middle" font-size="20" fill="#4c1d95" font-weight="700">Review Session</text>
    <text x="450" y="719" text-anchor="middle" font-size="20" fill="#4c1d95" font-weight="700">Analytics</text>
  </g>
  <g>
    <ellipse cx="750" cy="700" rx="130" ry="50" fill="#f5f3ff" stroke="#7c3aed" stroke-width="2.6"/>
    <text x="750" y="694" text-anchor="middle" font-size="20" fill="#4c1d95" font-weight="700">Validate Model</text>
    <text x="750" y="719" text-anchor="middle" font-size="20" fill="#4c1d95" font-weight="700">Accuracy</text>
  </g>
  <g>
    <ellipse cx="1080" cy="700" rx="130" ry="50" fill="#ffffff" stroke="#475569" stroke-width="2"/>
    <text x="1080" y="694" text-anchor="middle" font-size="20" fill="#0f172a" font-weight="700">Tune Fatigue</text>
    <text x="1080" y="719" text-anchor="middle" font-size="20" fill="#0f172a" font-weight="700">Thresholds</text>
  </g>

  <!-- SME USE CASES (Row 2: y=830) -->
  <line x1="220" y1="830" x2="320" y2="830" stroke="#475569" stroke-width="2"/>
  <g>
    <ellipse cx="450" cy="830" rx="130" ry="50" fill="#ffffff" stroke="#475569" stroke-width="2"/>
    <text x="450" y="824" text-anchor="middle" font-size="20" fill="#0f172a" font-weight="700">Audit Alert</text>
    <text x="450" y="849" text-anchor="middle" font-size="20" fill="#0f172a" font-weight="700">Logs</text>
  </g>
  <g>
    <ellipse cx="750" cy="830" rx="130" ry="50" fill="#ffffff" stroke="#475569" stroke-width="2"/>
    <text x="750" y="824" text-anchor="middle" font-size="20" fill="#0f172a" font-weight="700">Approve Model</text>
    <text x="750" y="849" text-anchor="middle" font-size="20" fill="#0f172a" font-weight="700">Deployment</text>
  </g>
  <g>
    <ellipse cx="1080" cy="830" rx="130" ry="50" fill="#ffffff" stroke="#475569" stroke-width="2"/>
    <text x="1080" y="824" text-anchor="middle" font-size="20" fill="#0f172a" font-weight="700">Generate Compliance</text>
    <text x="1080" y="849" text-anchor="middle" font-size="20" fill="#0f172a" font-weight="700">Report</text>
  </g>
  <line x1="320" y1="700" x2="320" y2="830" stroke="#475569" stroke-width="2"/>
  <line x1="750" y1="750" x2="750" y2="765" stroke="#475569" stroke-width="2"/>
  <line x1="1080" y1="750" x2="1080" y2="765" stroke="#475569" stroke-width="2"/>

  <!-- ============ DEVELOPER LANE ASSOCIATION BUS ============ -->
  <line x1="162" y1="1165" x2="220" y2="1165" stroke="#475569" stroke-width="2"/>
  <line x1="220" y1="1075" x2="220" y2="1310" stroke="#475569" stroke-width="2"/>

  <!-- DEV USE CASES (Row 1: y=1090) -->
  <line x1="220" y1="1090" x2="320" y2="1090" stroke="#475569" stroke-width="2"/>
  <g>
    <ellipse cx="450" cy="1090" rx="130" ry="50" fill="#fff7ed" stroke="#ea580c" stroke-width="2.6"/>
    <text x="450" y="1084" text-anchor="middle" font-size="20" fill="#7c2d12" font-weight="700">Configure System</text>
    <text x="450" y="1109" text-anchor="middle" font-size="20" fill="#7c2d12" font-weight="700">Settings</text>
  </g>
  <g>
    <ellipse cx="750" cy="1090" rx="130" ry="50" fill="#fff7ed" stroke="#ea580c" stroke-width="2.6"/>
    <text x="750" y="1084" text-anchor="middle" font-size="20" fill="#7c2d12" font-weight="700">Deploy Model</text>
    <text x="750" y="1109" text-anchor="middle" font-size="20" fill="#7c2d12" font-weight="700">Update</text>
  </g>
  <g>
    <ellipse cx="1080" cy="1090" rx="130" ry="50" fill="#ffffff" stroke="#475569" stroke-width="2"/>
    <text x="1080" y="1084" text-anchor="middle" font-size="20" fill="#0f172a" font-weight="700">Monitor System</text>
    <text x="1080" y="1109" text-anchor="middle" font-size="20" fill="#0f172a" font-weight="700">Health</text>
  </g>

  <!-- DEV USE CASES (Row 2: y=1230) -->
  <line x1="220" y1="1230" x2="320" y2="1230" stroke="#475569" stroke-width="2"/>
  <g>
    <ellipse cx="450" cy="1230" rx="130" ry="50" fill="#ffffff" stroke="#475569" stroke-width="2"/>
    <text x="450" y="1224" text-anchor="middle" font-size="20" fill="#0f172a" font-weight="700">Manage Database</text>
    <text x="450" y="1249" text-anchor="middle" font-size="20" fill="#0f172a" font-weight="700">Schema</text>
  </g>
  <g>
    <ellipse cx="750" cy="1230" rx="130" ry="50" fill="#ffffff" stroke="#475569" stroke-width="2"/>
    <text x="750" y="1224" text-anchor="middle" font-size="20" fill="#0f172a" font-weight="700">Debug &amp; Analyze</text>
    <text x="750" y="1249" text-anchor="middle" font-size="20" fill="#0f172a" font-weight="700">Logs</text>
  </g>
  <g>
    <ellipse cx="1080" cy="1230" rx="130" ry="50" fill="#ffffff" stroke="#475569" stroke-width="2"/>
    <text x="1080" y="1224" text-anchor="middle" font-size="20" fill="#0f172a" font-weight="700">View System</text>
    <text x="1080" y="1249" text-anchor="middle" font-size="20" fill="#0f172a" font-weight="700">Telemetry</text>
  </g>
  <line x1="320" y1="1090" x2="320" y2="1230" stroke="#475569" stroke-width="2"/>
  <line x1="750" y1="1140" x2="750" y2="1165" stroke="#475569" stroke-width="2"/>
  <line x1="1080" y1="1140" x2="1080" y2="1165" stroke="#475569" stroke-width="2"/>

  <!-- ============ SYSTEM-INTERNAL USE CASES (right column) ============ -->
  <g>
    <ellipse cx="1340" cy="305" rx="120" ry="48" fill="#f0fdf4" stroke="#16a34a" stroke-width="2.6"/>
    <text x="1340" y="299" text-anchor="middle" font-size="20" fill="#14532d" font-weight="700">Detect Face</text>
    <text x="1340" y="324" text-anchor="middle" font-size="20" fill="#14532d" font-weight="700">Landmarks</text>
  </g>
  <g>
    <ellipse cx="1340" cy="425" rx="120" ry="48" fill="#f0fdf4" stroke="#16a34a" stroke-width="2.6"/>
    <text x="1340" y="431" text-anchor="middle" font-size="20" fill="#14532d" font-weight="700">Compute EAR</text>
  </g>
  <g>
    <ellipse cx="1340" cy="700" rx="120" ry="48" fill="#f0fdf4" stroke="#16a34a" stroke-width="2.6"/>
    <text x="1340" y="694" text-anchor="middle" font-size="20" fill="#14532d" font-weight="700">Compute</text>
    <text x="1340" y="719" text-anchor="middle" font-size="20" fill="#14532d" font-weight="700">PERCLOS</text>
  </g>
  <g>
    <ellipse cx="1340" cy="830" rx="120" ry="48" fill="#f0fdf4" stroke="#16a34a" stroke-width="2.6"/>
    <text x="1340" y="836" text-anchor="middle" font-size="20" fill="#14532d" font-weight="700">Persist Metric</text>
  </g>

  <!-- ============ KEY «include» / «extend» RELATIONSHIPS ============ -->
  <!-- Receive Fatigue Alert → Detect Face Landmarks (include, routed up) -->
  <path d="M 1210 295 L 1220 295" stroke="#64748b" stroke-width="2" stroke-dasharray="6 4" fill="none" marker-end="url(#arrow)"/>
  <text x="1180" y="278" text-anchor="middle" font-size="16" fill="#64748b" font-style="italic" font-weight="600">«include»</text>

  <!-- View Analytics Dashboard → Compute EAR (include) -->
  <path d="M 1210 425 L 1220 425" stroke="#64748b" stroke-width="2" stroke-dasharray="6 4" fill="none" marker-end="url(#arrow)"/>
  <text x="1180" y="413" text-anchor="middle" font-size="16" fill="#64748b" font-style="italic" font-weight="600">«include»</text>

  <!-- Validate Model → Persist Metric (include, routed around) -->
  <path d="M 880 720 Q 1100 760 1220 820" stroke="#64748b" stroke-width="2" stroke-dasharray="6 4" fill="none" marker-end="url(#arrow)"/>
  <text x="1080" y="755" text-anchor="middle" font-size="16" fill="#64748b" font-style="italic" font-weight="600">«include»</text>

  <!-- Tune Fatigue Thresholds → Compute PERCLOS (extend) -->
  <path d="M 1210 700 L 1220 700" stroke="#64748b" stroke-width="2" stroke-dasharray="6 4" fill="none" marker-end="url(#arrow)"/>
  <text x="1185" y="688" text-anchor="middle" font-size="16" fill="#64748b" font-style="italic" font-weight="600">«extend»</text>

  <!-- ============ LEGEND (bottom) ============ -->
  <g transform="translate(70, 1430)">
    <rect x="0" y="0" width="1360" height="58" rx="29" fill="#ffffff" stroke="#cbd5e1" stroke-width="1.6"/>
    <ellipse cx="40" cy="29" rx="22" ry="14" fill="#eff6ff" stroke="#2563eb" stroke-width="2.4"/>
    <text x="74" y="36" font-size="19" fill="#334155" font-weight="600">User flow</text>
    <ellipse cx="208" cy="29" rx="22" ry="14" fill="#f5f3ff" stroke="#7c3aed" stroke-width="2.4"/>
    <text x="242" y="36" font-size="19" fill="#334155" font-weight="600">SME flow</text>
    <ellipse cx="368" cy="29" rx="22" ry="14" fill="#fff7ed" stroke="#ea580c" stroke-width="2.4"/>
    <text x="402" y="36" font-size="19" fill="#334155" font-weight="600">Developer flow</text>
    <ellipse cx="572" cy="29" rx="22" ry="14" fill="#fef2f2" stroke="#dc2626" stroke-width="2.4"/>
    <text x="606" y="36" font-size="19" fill="#334155" font-weight="600">Safety-critical</text>
    <ellipse cx="780" cy="29" rx="22" ry="14" fill="#f0fdf4" stroke="#16a34a" stroke-width="2.4"/>
    <text x="814" y="36" font-size="19" fill="#334155" font-weight="600">System internal</text>
    <line x1="990" y1="29" x2="1040" y2="29" stroke="#475569" stroke-width="2.2"/>
    <text x="1054" y="36" font-size="19" fill="#334155" font-weight="600">Association</text>
    <line x1="1190" y1="29" x2="1240" y2="29" stroke="#64748b" stroke-width="2" stroke-dasharray="6 4"/>
    <text x="1254" y="36" font-size="19" font-style="italic" fill="#334155" font-weight="600">«include» / «extend»</text>
  </g>
</svg>
