<?xml version="1.0" encoding="UTF-8"?>
  <svg xmlns="http://www.w3.org/2000/svg" viewBox="0 0 1500 1500" font-family="'Inter', system-ui, sans-serif">
    <rect width="1500" height="1500" fill="#f8fafc"/>
    <defs>
      <marker id="arrow" viewBox="0 0 10 10" refX="9" refY="5" markerWidth="9" markerHeight="9" orient="auto">
        <path d="M 0 0 L 10 5 L 0 10" fill="none" stroke="#64748b" stroke-width="1.2"/>
      </marker>
    </defs>
    <text x="750" y="60" text-anchor="middle" font-size="26" font-weight="700" fill="#0f172a">NeuroGuard — Use Case Diagram</text>
    <text x="750" y="92" text-anchor="middle" font-size="14" fill="#64748b" letter-spacing="3">UML · MULTI-ACTOR INTERACTION MODEL</text>
    <rect x="240" y="140" width="1240" height="1240" rx="14" fill="#ffffff" stroke="#0f172a" stroke-width="2.2"/>
    <text x="860" y="172" text-anchor="middle" font-size="17" font-weight="700" fill="#0f172a" letter-spacing="1">NeuroGuard System</text>
  
    <rect x="240" y="195" width="1240" height="380" fill="#2563eb" opacity="0.05"/>
    <line x1="240" y1="195" x2="1480" y2="195" stroke="#2563eb" stroke-width="0.8" stroke-dasharray="3 4" opacity="0.6"/>
    <text x="254" y="217" font-size="12" font-weight="700" fill="#2563eb" letter-spacing="2" opacity="0.85">USER LANE</text>
    <rect x="240" y="580" width="1240" height="380" fill="#7c3aed" opacity="0.05"/>
    <line x1="240" y1="580" x2="1480" y2="580" stroke="#7c3aed" stroke-width="0.8" stroke-dasharray="3 4" opacity="0.6"/>
    <text x="254" y="602" font-size="12" font-weight="700" fill="#7c3aed" letter-spacing="2" opacity="0.85">SME LANE</text>
    <rect x="240" y="965" width="1240" height="415" fill="#ea580c" opacity="0.05"/>
    <line x1="240" y1="965" x2="1480" y2="965" stroke="#ea580c" stroke-width="0.8" stroke-dasharray="3 4" opacity="0.6"/>
    <text x="254" y="987" font-size="12" font-weight="700" fill="#ea580c" letter-spacing="2" opacity="0.85">DEVELOPER LANE</text>
    <g>
      <circle cx="110" cy="300" r="20" fill="none" stroke="#0f172a" stroke-width="2.2"/>
      <line x1="110" y1="320" x2="110" y2="376" stroke="#0f172a" stroke-width="2.2"/>
      <line x1="80" y1="342" x2="140" y2="342" stroke="#0f172a" stroke-width="2.2"/>
      <line x1="110" y1="376" x2="84" y2="414" stroke="#0f172a" stroke-width="2.2"/>
      <line x1="110" y1="376" x2="136" y2="414" stroke="#0f172a" stroke-width="2.2"/>
      <text x="110" y="442" text-anchor="middle" font-size="16" font-weight="700" fill="#0f172a">User</text>
      <text x="110" y="462" text-anchor="middle" font-size="12" fill="#64748b">(Driver / General)</text>
    </g>
    <g>
      <circle cx="110" cy="710" r="20" fill="none" stroke="#0f172a" stroke-width="2.2"/>
      <line x1="110" y1="730" x2="110" y2="786" stroke="#0f172a" stroke-width="2.2"/>
      <line x1="80" y1="752" x2="140" y2="752" stroke="#0f172a" stroke-width="2.2"/>
      <line x1="110" y1="786" x2="84" y2="824" stroke="#0f172a" stroke-width="2.2"/>
      <line x1="110" y1="786" x2="136" y2="824" stroke="#0f172a" stroke-width="2.2"/>
      <text x="110" y="852" text-anchor="middle" font-size="16" font-weight="700" fill="#0f172a">SME</text>
      <text x="110" y="872" text-anchor="middle" font-size="12" fill="#64748b">(Safety Domain Expert)</text>
    </g>
    <g>
      <circle cx="110" cy="1120" r="20" fill="none" stroke="#0f172a" stroke-width="2.2"/>
      <line x1="110" y1="1140" x2="110" y2="1196" stroke="#0f172a" stroke-width="2.2"/>
      <line x1="80" y1="1162" x2="140" y2="1162" stroke="#0f172a" stroke-width="2.2"/>
      <line x1="110" y1="1196" x2="84" y2="1234" stroke="#0f172a" stroke-width="2.2"/>
      <line x1="110" y1="1196" x2="136" y2="1234" stroke="#0f172a" stroke-width="2.2"/>
      <text x="110" y="1262" text-anchor="middle" font-size="16" font-weight="700" fill="#0f172a">Developer</text>
      <text x="110" y="1282" text-anchor="middle" font-size="12" fill="#64748b">(Engineer / Maintainer)</text>
    </g>
    <g>
      <ellipse cx="400" cy="270" rx="105" ry="34" fill="#eff6ff" stroke="#2563eb" stroke-width="1.8"/>
      <text x="400" y="268" text-anchor="middle" font-size="13" fill="#1e3a8a" font-weight="500">Start Monitoring</text>
         <text x="400" y="286" text-anchor="middle" font-size="13" fill="#1e3a8a" font-weight="500">Session</text>
    </g>
    <g>
      <ellipse cx="660" cy="270" rx="105" ry="34" fill="#ffffff" stroke="#475569" stroke-width="1.4"/>
      <text x="660" y="268" text-anchor="middle" font-size="13" fill="#0f172a" font-weight="500">Select Inference</text>
         <text x="660" y="286" text-anchor="middle" font-size="13" fill="#0f172a" font-weight="500">Model</text>
    </g>
    <g>
      <ellipse cx="920" cy="270" rx="105" ry="34" fill="#ffffff" stroke="#475569" stroke-width="1.4"/>
      <text x="920" y="268" text-anchor="middle" font-size="13" fill="#0f172a" font-weight="500">View Session</text>
         <text x="920" y="286" text-anchor="middle" font-size="13" fill="#0f172a" font-weight="500">History</text>
    </g>
    <g>
      <ellipse cx="400" cy="380" rx="105" ry="34" fill="#eff6ff" stroke="#2563eb" stroke-width="1.8"/>
      <text x="400" y="378" text-anchor="middle" font-size="13" fill="#1e3a8a" font-weight="500">View Live</text>
         <text x="400" y="396" text-anchor="middle" font-size="13" fill="#1e3a8a" font-weight="500">Metrics</text>
    </g>
    <g>
      <ellipse cx="660" cy="380" rx="105" ry="34" fill="#ffffff" stroke="#475569" stroke-width="1.4"/>
      <text x="660" y="385" text-anchor="middle" font-size="13" fill="#0f172a" font-weight="500">End Session</text>
    </g>
    <g>
      <ellipse cx="920" cy="380" rx="105" ry="34" fill="#fef2f2" stroke="#dc2626" stroke-width="1.8"/>
      <text x="920" y="378" text-anchor="middle" font-size="13" fill="#7f1d1d" font-weight="500">Receive Fatigue</text>
         <text x="920" y="396" text-anchor="middle" font-size="13" fill="#7f1d1d" font-weight="500">Alert</text>
    </g>
    <g>
      <ellipse cx="400" cy="490" rx="105" ry="34" fill="#ffffff" stroke="#475569" stroke-width="1.4"/>
      <text x="400" y="488" text-anchor="middle" font-size="13" fill="#0f172a" font-weight="500">View Analytics</text>
         <text x="400" y="506" text-anchor="middle" font-size="13" fill="#0f172a" font-weight="500">Dashboard</text>
    </g>
    <g>
      <ellipse cx="660" cy="490" rx="105" ry="34" fill="#ffffff" stroke="#475569" stroke-width="1.4"/>
      <text x="660" y="495" text-anchor="middle" font-size="13" fill="#0f172a" font-weight="500">Delete Session</text>
    </g>
    <g>
      <ellipse cx="400" cy="660" rx="105" ry="34" fill="#f5f3ff" stroke="#7c3aed" stroke-width="1.8"/>
      <text x="400" y="658" text-anchor="middle" font-size="13" fill="#4c1d95" font-weight="500">Review Session</text>
         <text x="400" y="676" text-anchor="middle" font-size="13" fill="#4c1d95" font-weight="500">Analytics</text>
    </g>
    <g>
      <ellipse cx="660" cy="660" rx="105" ry="34" fill="#f5f3ff" stroke="#7c3aed" stroke-width="1.8"/>
      <text x="660" y="658" text-anchor="middle" font-size="13" fill="#4c1d95" font-weight="500">Validate Model</text>
         <text x="660" y="676" text-anchor="middle" font-size="13" fill="#4c1d95" font-weight="500">Accuracy</text>
    </g>
    <g>
      <ellipse cx="920" cy="660" rx="105" ry="34" fill="#ffffff" stroke="#475569" stroke-width="1.4"/>
      <text x="920" y="658" text-anchor="middle" font-size="13" fill="#0f172a" font-weight="500">Tune Fatigue</text>
         <text x="920" y="676" text-anchor="middle" font-size="13" fill="#0f172a" font-weight="500">Thresholds</text>
    </g>
    <g>
      <ellipse cx="400" cy="770" rx="105" ry="34" fill="#ffffff" stroke="#475569" stroke-width="1.4"/>
      <text x="400" y="768" text-anchor="middle" font-size="13" fill="#0f172a" font-weight="500">Audit Alert</text>
         <text x="400" y="786" text-anchor="middle" font-size="13" fill="#0f172a" font-weight="500">Logs</text>
    </g>
    <g>
      <ellipse cx="660" cy="770" rx="105" ry="34" fill="#ffffff" stroke="#475569" stroke-width="1.4"/>
      <text x="660" y="768" text-anchor="middle" font-size="13" fill="#0f172a" font-weight="500">Approve Model</text>
         <text x="660" y="786" text-anchor="middle" font-size="13" fill="#0f172a" font-weight="500">Deployment</text>
    </g>
    <g>
      <ellipse cx="920" cy="770" rx="105" ry="34" fill="#ffffff" stroke="#475569" stroke-width="1.4"/>
      <text x="920" y="768" text-anchor="middle" font-size="13" fill="#0f172a" font-weight="500">Generate Compliance</text>
         <text x="920" y="786" text-anchor="middle" font-size="13" fill="#0f172a" font-weight="500">Report</text>
    </g>
    <g>
      <ellipse cx="400" cy="1050" rx="105" ry="34" fill="#fff7ed" stroke="#ea580c" stroke-width="1.8"/>
      <text x="400" y="1048" text-anchor="middle" font-size="13" fill="#7c2d12" font-weight="500">Configure System</text>
         <text x="400" y="1066" text-anchor="middle" font-size="13" fill="#7c2d12" font-weight="500">Settings</text>
    </g>
    <g>
      <ellipse cx="660" cy="1050" rx="105" ry="34" fill="#fff7ed" stroke="#ea580c" stroke-width="1.8"/>
      <text x="660" y="1048" text-anchor="middle" font-size="13" fill="#7c2d12" font-weight="500">Deploy Model</text>
         <text x="660" y="1066" text-anchor="middle" font-size="13" fill="#7c2d12" font-weight="500">Update</text>
    </g>
    <g>
      <ellipse cx="920" cy="1050" rx="105" ry="34" fill="#ffffff" stroke="#475569" stroke-width="1.4"/>
      <text x="920" y="1048" text-anchor="middle" font-size="13" fill="#0f172a" font-weight="500">Monitor System</text>
         <text x="920" y="1066" text-anchor="middle" font-size="13" fill="#0f172a" font-weight="500">Health</text>
    </g>
    <g>
      <ellipse cx="400" cy="1160" rx="105" ry="34" fill="#ffffff" stroke="#475569" stroke-width="1.4"/>
      <text x="400" y="1158" text-anchor="middle" font-size="13" fill="#0f172a" font-weight="500">Manage Database</text>
         <text x="400" y="1176" text-anchor="middle" font-size="13" fill="#0f172a" font-weight="500">Schema</text>
    </g>
    <g>
      <ellipse cx="660" cy="1160" rx="105" ry="34" fill="#ffffff" stroke="#475569" stroke-width="1.4"/>
      <text x="660" y="1158" text-anchor="middle" font-size="13" fill="#0f172a" font-weight="500">Debug &amp; Analyze</text>
         <text x="660" y="1176" text-anchor="middle" font-size="13" fill="#0f172a" font-weight="500">Logs</text>
    </g>
    <g>
      <ellipse cx="920" cy="1160" rx="105" ry="34" fill="#ffffff" stroke="#475569" stroke-width="1.4"/>
      <text x="920" y="1158" text-anchor="middle" font-size="13" fill="#0f172a" font-weight="500">View System</text>
         <text x="920" y="1176" text-anchor="middle" font-size="13" fill="#0f172a" font-weight="500">Telemetry</text>
    </g>
    <g>
      <ellipse cx="660" cy="1270" rx="105" ry="34" fill="#ffffff" stroke="#475569" stroke-width="1.4"/>
      <text x="660" y="1268" text-anchor="middle" font-size="13" fill="#0f172a" font-weight="500">Manage User</text>
         <text x="660" y="1286" text-anchor="middle" font-size="13" fill="#0f172a" font-weight="500">Roles</text>
    </g>
    <g>
      <ellipse cx="1340" cy="270" rx="105" ry="34" fill="#f0fdf4" stroke="#16a34a" stroke-width="1.8"/>
      <text x="1340" y="268" text-anchor="middle" font-size="13" fill="#14532d" font-weight="500">Detect Face</text>
         <text x="1340" y="286" text-anchor="middle" font-size="13" fill="#14532d" font-weight="500">Landmarks</text>
    </g>
    <g>
      <ellipse cx="1340" cy="360" rx="105" ry="34" fill="#f0fdf4" stroke="#16a34a" stroke-width="1.8"/>
      <text x="1340" y="365" text-anchor="middle" font-size="13" fill="#14532d" font-weight="500">Compute EAR</text>
    </g>
    <g>
      <ellipse cx="1340" cy="450" rx="105" ry="34" fill="#f0fdf4" stroke="#16a34a" stroke-width="1.8"/>
      <text x="1340" y="455" text-anchor="middle" font-size="13" fill="#14532d" font-weight="500">Compute PERCLOS</text>
    </g>
    <g>
      <ellipse cx="1340" cy="540" rx="105" ry="34" fill="#f0fdf4" stroke="#16a34a" stroke-width="1.8"/>
      <text x="1340" y="545" text-anchor="middle" font-size="13" fill="#14532d" font-weight="500">Persist Metric</text>
    </g><line x1="140" y1="350" x2="295" y2="270" stroke="#475569" stroke-width="1.2"/><line x1="140" y1="350" x2="295" y2="380" stroke="#475569" stroke-width="1.2"/><line x1="140" y1="350" x2="295" y2="490" stroke="#475569" stroke-width="1.2"/><line x1="140" y1="350" x2="555" y2="270" stroke="#475569" stroke-width="1.2"/><line x1="140" y1="350" x2="555" y2="380" stroke="#475569" stroke-width="1.2"/><line x1="140" y1="350" x2="815" y2="270" stroke="#475569" stroke-width="1.2"/><line x1="140" y1="350" x2="815" y2="380" stroke="#475569" stroke-width="1.2"/><line x1="140" y1="760" x2="295" y2="660" stroke="#475569" stroke-width="1.2"/><line x1="140" y1="760" x2="295" y2="770" stroke="#475569" stroke-width="1.2"/><line x1="140" y1="760" x2="555" y2="660" stroke="#475569" stroke-width="1.2"/><line x1="140" y1="760" x2="555" y2="770" stroke="#475569" stroke-width="1.2"/><line x1="140" y1="760" x2="815" y2="660" stroke="#475569" stroke-width="1.2"/><line x1="140" y1="760" x2="815" y2="770" stroke="#475569" stroke-width="1.2"/><line x1="140" y1="760" x2="295" y2="490" stroke="#475569" stroke-width="1.2"/><line x1="140" y1="760" x2="815" y2="270" stroke="#475569" stroke-width="1.2"/><line x1="140" y1="1170" x2="295" y2="1050" stroke="#475569" stroke-width="1.2"/><line x1="140" y1="1170" x2="295" y2="1160" stroke="#475569" stroke-width="1.2"/><line x1="140" y1="1170" x2="555" y2="1050" stroke="#475569" stroke-width="1.2"/><line x1="140" y1="1170" x2="555" y2="1160" stroke="#475569" stroke-width="1.2"/><line x1="140" y1="1170" x2="555" y2="1270" stroke="#475569" stroke-width="1.2"/><line x1="140" y1="1170" x2="815" y2="1050" stroke="#475569" stroke-width="1.2"/><line x1="140" y1="1170" x2="815" y2="1160" stroke="#475569" stroke-width="1.2"/><line x1="505" y1="270" x2="555" y2="270" stroke="#64748b" stroke-width="1.2" stroke-dasharray="5 4" marker-end="url(#arrow)"/><text x="530" y="261" text-anchor="middle" font-size="11" fill="#64748b" font-style="italic">«include»</text><path d="M 400 414 L 400 440 L 1080 440 L 1080 270 L 1235 270" stroke="#64748b" stroke-width="1.2" stroke-dasharray="5 4" fill="none" marker-end="url(#arrow)"/><path d="M 400 414 L 400 440 L 1090 440 L 1090 360 L 1235 360" stroke="#64748b" stroke-width="1.2" stroke-dasharray="5 4" fill="none" marker-end="url(#arrow)"/><path d="M 400 414 L 400 440 L 1100 440 L 1100 450 L 1235 450" stroke="#64748b" stroke-width="1.2" stroke-dasharray="5 4" fill="none" marker-end="url(#arrow)"/><path d="M 400 414 L 400 440 L 1110 440 L 1110 540 L 1235 540" stroke="#64748b" stroke-width="1.2" stroke-dasharray="5 4" fill="none" marker-end="url(#arrow)"/><text x="730" y="432" text-anchor="middle" font-size="12" fill="#64748b" font-style="italic">«include» × 4 system functions</text><path d="M 815 380 Q 660 320 505 380" stroke="#64748b" stroke-width="1.2" stroke-dasharray="5 4" fill="none" marker-end="url(#arrow)"/><text x="660" y="328" text-anchor="middle" font-size="11" fill="#64748b" font-style="italic">«extend»</text><line x1="660" y1="456" x2="920" y2="308" stroke="#64748b" stroke-width="1.2" stroke-dasharray="5 4" marker-end="url(#arrow)"/><text x="800" y="372" font-size="11" fill="#64748b" font-style="italic">«extend»</text><line x1="660" y1="736" x2="660" y2="694" stroke="#64748b" stroke-width="1.2" stroke-dasharray="5 4" marker-end="url(#arrow)"/><text x="675" y="718" font-size="11" fill="#64748b" font-style="italic">«include»</text><line x1="660" y1="1016" x2="660" y2="804" stroke="#64748b" stroke-width="1.2" stroke-dasharray="5 4" marker-end="url(#arrow)"/><text x="675" y="900" font-size="11" fill="#64748b" font-style="italic">«include»</text>
    <g transform="translate(175, 1430)">
      <rect x="-15" y="-26" width="1180" height="42" rx="21" fill="#ffffff" stroke="#e2e8f0"/>
      <ellipse cx="20" cy="-4" rx="16" ry="10" fill="#eff6ff" stroke="#2563eb" stroke-width="1.6"/>
      <text x="44" y="0" font-size="13" fill="#475569">User flow</text>
      <ellipse cx="135" cy="-4" rx="16" ry="10" fill="#f5f3ff" stroke="#7c3aed" stroke-width="1.6"/>
      <text x="160" y="0" font-size="13" fill="#475569">SME flow</text>
      <ellipse cx="252" cy="-4" rx="16" ry="10" fill="#fff7ed" stroke="#ea580c" stroke-width="1.6"/>
      <text x="277" y="0" font-size="13" fill="#475569">Developer flow</text>
      <ellipse cx="395" cy="-4" rx="16" ry="10" fill="#fef2f2" stroke="#dc2626" stroke-width="1.6"/>
      <text x="420" y="0" font-size="13" fill="#475569">Safety-critical</text>
      <ellipse cx="540" cy="-4" rx="16" ry="10" fill="#f0fdf4" stroke="#16a34a" stroke-width="1.6"/>
      <text x="565" y="0" font-size="13" fill="#475569">System internal</text>
      <line x1="690" y1="-4" x2="725" y2="-4" stroke="#475569" stroke-width="1.4"/>
      <text x="735" y="0" font-size="13" fill="#475569">Association</text>
      <line x1="850" y1="-4" x2="885" y2="-4" stroke="#64748b" stroke-width="1.2" stroke-dasharray="5 4"/>
      <text x="895" y="0" font-size="13" font-style="italic" fill="#475569">«include» / «extend»</text>
    </g>
  </svg>